<svg id="Group_25" data-name="Group 25" xmlns="http://www.w3.org/2000/svg" width="607.619" height="459.149" viewBox="0 0 607.619 459.149">
  <path id="Fill_178" data-name="Fill 178" d="M90.445,229.049,77.986,202.483c16.023-6.527,23.936-31.284,26.641-41.808-6.47,22.017-31.48,37.164-31.48,37.164-15.216-14.711-22.192-53.375-16.882-59.992,5.172-6.493,21.484-34.394,22.161-35.56L48.436,137.413s-7.971-27.433-6.206-41.9C43.95,81.477,56.306,54.69,57.077,53.027l-19.7,33.816C28.826,57.212,35.63,0,35.63,0,24.9,42.406,30.141,87.907,30.141,87.907,18.411,80.541,4.593,58.362,3.729,56.979,15.428,88.578,32.6,100.8,32.6,100.8c4.492,24.308,10.388,46.158,10.388,46.158C28.778,143.234,0,123.418,0,123.418a142.068,142.068,0,0,0,44.178,31.607c5.6,23.648,19.409,45.194,19.409,45.194-17.114-.6-34.938-7.735-36.008-8.166,21,15.71,47.123,17.159,47.123,17.159l8.044,19.41.06,1.294a60.788,60.788,0,0,0,7.638-.867" transform="translate(143.192 72.529)" fill="#171b33"/>
  <path id="Fill_179" data-name="Fill 179" d="M92.8,250.671a144.316,144.316,0,0,1-30.712-3.722A165.923,165.923,0,0,1,30.5,236.579a90.009,90.009,0,0,1-17.781-10.154A34.752,34.752,0,0,1,3.4,216.279,25.468,25.468,0,0,1,.149,205.752a53.369,53.369,0,0,1,.431-11.3c.588-4.71,4.18-7,10.981-7,5.029,0,11.143,1.252,16.478,2.425l1.948.431c4.818,1.07,8.978,1.994,11.7,1.994a5.3,5.3,0,0,0,2.229-.366,1.115,1.115,0,0,0,.663-.831c.484-2.613-6.233-9.676-14.738-18.617C20.031,162.174,7.82,149.337,2.6,138.792c-2.2-4.445-2.675-7.736-1.4-9.783,1.049-1.69,3.29-2.548,6.661-2.548a45.918,45.918,0,0,1,12.641,2.357A86.093,86.093,0,0,1,30.8,132.7a2.576,2.576,0,0,0,1.017.29.6.6,0,0,0,.559-.284c.976-1.635-3.539-10.009-9.256-20.609-5.253-9.741-11.207-20.781-14.675-29.85a28.884,28.884,0,0,1-2.153-9.23A9.318,9.318,0,0,1,7.677,67.4c1.758-2.554,4.78-3.09,7.005-3.09a18.085,18.085,0,0,1,5.269.853,19.016,19.016,0,0,1,4.634,2.126c2.611,1.69,4.424,2.478,5.7,2.478a1.95,1.95,0,0,0,1.667-.773c1.359-1.8.825-6.755-1.678-15.606-1.679-5.936-1.644-14.266.1-22.855a67.4,67.4,0,0,1,3.635-12.116,45.7,45.7,0,0,1,5.67-10.244,23.865,23.865,0,0,1,6.247-5.946A13.8,13.8,0,0,1,53.3,0c.238,0,.48.007.719.02a6.546,6.546,0,0,1,4.776,2.506C60.614,4.7,61.907,8.347,62.636,13.36A97.239,97.239,0,0,1,63.315,29.5C63,41.227,61.427,54.031,60.282,63.381c-.775,6.325-1.334,10.893-1.17,12.382.214,1.947.532,2.854,1,2.854,1.224,0,3.639-6.274,8.024-17.664A20.069,20.069,0,0,1,72.526,53.8a7.439,7.439,0,0,1,5.07-2.409A5.7,5.7,0,0,1,82,53.675c1.584,1.911,2.65,4.915,3.083,8.686a52.193,52.193,0,0,1-.93,15.337,88.9,88.9,0,0,1-4.375,15.6,99.471,99.471,0,0,1-4.438,9.763c-1.7,3.368-2.733,5.4-2.054,6.693.544,1.035,2.14,1.627,5.692,2.11a13.588,13.588,0,0,0,1.825.123c4.628,0,8.81-2.361,12.5-4.443l.328-.185c3.875-2.189,7.535-4.257,11.455-4.257,3.521,0,6.849,1.736,10.174,5.308a10.544,10.544,0,0,1,2.8,6.94,23.507,23.507,0,0,1-1.5,8.66c-2.1,6.2-6.091,13.118-9.949,19.81-6.571,11.4-12.777,22.162-9.1,28.128,1.674,2.716,3.316,4.036,5.02,4.036,1.769,0,3.656-1.412,5.937-4.443a119.5,119.5,0,0,0,6.889-11.059c2.855-4.926,6.089-10.507,9.923-15.974,2.418-3.448,4.746-5.2,6.918-5.2a5.223,5.223,0,0,1,3.978,2.23c3,3.634,5.207,11.64,6.052,21.966a121.519,121.519,0,0,1,.21,16,121.15,121.15,0,0,1-1.981,16.7,123.36,123.36,0,0,1-5.906,20.9,97.822,97.822,0,0,1-7.241,15.024c-5.113,8.558-9.62,12.713-10.925,13.592a28.751,28.751,0,0,1-10.892,3.945L93.042,223.1c6.935-2.825,13.1-9.353,18.315-19.4a108.849,108.849,0,0,0,8.326-22.4,50.339,50.339,0,0,1-7.648,15.1,79.632,79.632,0,0,1-10.518,11.743A93.337,93.337,0,0,1,88.2,218.453c-3.577-3.459-6.875-8.387-9.8-14.649a99.125,99.125,0,0,1-6.334-18.382,86.015,86.015,0,0,1-2.486-16.864,32.6,32.6,0,0,1,.319-6.223,8.548,8.548,0,0,1,1.424-3.874c5.236-6.573,21.995-35.274,22.161-35.56L63.493,158.028a.245.245,0,0,1-.014-.042c-.346-1.213-2.152-7.659-3.752-15.484-1.029-5.032-1.775-9.65-2.216-13.726a57.37,57.37,0,0,1-.225-12.652c.718-5.856,3.335-14.564,7.779-25.881,3.305-8.417,6.467-15.307,7.067-16.6l-19.7,33.816c-1.951-6.761-3.255-15.532-3.879-26.07-.5-8.432-.566-18.008-.2-28.463.626-17.823,2.317-32.167,2.334-32.31A217.385,217.385,0,0,0,45.3,52.24c-.9,9.05-1.366,18.548-1.384,28.23A269.144,269.144,0,0,0,45.2,108.521a48.123,48.123,0,0,1-8.914-7.7,121.512,121.512,0,0,1-8.3-9.914C23.331,84.769,19.777,79.18,18.8,77.614l-.013-.02a129.593,129.593,0,0,0,9.446,20.177,103.42,103.42,0,0,0,9.375,13.581A60.265,60.265,0,0,0,47.655,121.41c4.443,24.049,10.328,45.939,10.387,46.157a68.554,68.554,0,0,1-12.71-5.246c-4.154-2.106-8.9-4.769-14.11-7.916-8.864-5.355-16.093-10.323-16.165-10.373a130.776,130.776,0,0,0,15.313,14.014A149.345,149.345,0,0,0,44.621,167.9a121.245,121.245,0,0,0,14.613,7.736,129.668,129.668,0,0,0,5.4,17.038c1.842,4.729,4,9.583,6.409,14.427,4.113,8.263,7.57,13.675,7.6,13.729-16.754-.588-34.087-7.393-36.008-8.167a80.772,80.772,0,0,0,16.223,9.309,100.4,100.4,0,0,0,15.214,5.162,92.036,92.036,0,0,0,15.686,2.688l8.044,19.41.06,1.293C96.242,250.624,94.539,250.671,92.8,250.671Zm27.794-73.2h0c-.174.8-.48,2.082-.911,3.8a32.1,32.1,0,0,0,.911-3.8Z" transform="translate(128.135 51.914)" fill="#15bf6a"/>
  <path id="Fill_180" data-name="Fill 180" d="M1.606,210.093A99.533,99.533,0,0,1,.442,182.4c1.341-14.515,6.5-35.4,23.454-52.458C53.8,99.853,56.408,92.446,65.043,67.9c.7-1.979,1.432-4.069,2.223-6.292C77.786,32.076,65.572,1.011,65.448.7L67.191,0c.127.317,12.6,32.043,1.845,62.242-.791,2.22-1.525,4.308-2.221,6.285-8.742,24.849-11.381,32.349-41.587,62.742-16.544,16.646-21.59,37.054-22.91,51.243A97.639,97.639,0,0,0,3.44,209.684l-1.834.409" transform="translate(512.491 74.562)" fill="#15bf6a"/>
  <path id="Fill_181" data-name="Fill 181" d="M0,39.006S2.706,27.055,16.739,20.471,55.388,0,55.388,0,59.7,5.351,44.642,14.727,2.5,32.685,0,39.006" transform="translate(513.924 217.48)" fill="#15bf6a"/>
  <path id="Fill_182" data-name="Fill 182" d="M30.329,41.8s-3.7-17.573-16.277-26.729S.262,0,.262,0-1.845,8.245,5.9,17.59,28.661,36.977,30.329,41.8" transform="translate(485.648 202.145)" fill="#17a49f"/>
  <path id="Fill_183" data-name="Fill 183" d="M0,22.3s6.313,2.067,24.452-8.49S49.11,2.785,49.11,2.785,48.589-1.1,38.36.309,6.465,13.743,0,22.3" transform="translate(521.646 205.039)" fill="#15bf6a"/>
  <path id="Fill_184" data-name="Fill 184" d="M20.557,53.9S23.01,42.324,10.372,32.119.193,0,.193,0,4.937,15.446,13.1,20.307s9.775,28.164,7.458,33.59" transform="translate(499.304 177.728)" fill="#17a49f"/>
  <path id="Fill_185" data-name="Fill 185" d="M10.869,54.261S-2.371,33.432,1,19.581,0,0,0,0,12.408,10.1,10.9,23.075,8.1,49.941,10.869,54.261" transform="translate(518.964 159.29)" fill="#17a49f"/>
  <path id="Fill_186" data-name="Fill 186" d="M.019,20.177c-.584.568,12.642,1.834,26.389-6.842s19.441-8.7,19.441-8.7S45.92,1.1,38.173.054,7.127,13.264.019,20.177" transform="translate(536.464 185.574)" fill="#15bf6a"/>
  <path id="Fill_187" data-name="Fill 187" d="M4.744,43.181s-7.6-18.016-3.565-27.507S1.8,0,1.8,0,8.452,2.766,8.63,12.017s-6.1,27.838-3.886,31.164" transform="translate(539.969 154.156)" fill="#15bf6a"/>
  <path id="Fill_188" data-name="Fill 188" d="M6.718,39.259S-1.655,24.68.294,14.434.112,0,.112,0s3.548.933,6,8.773-1.53,26.3.6,30.486" transform="translate(553.279 141.308)" fill="#15bf6a"/>
  <path id="Fill_189" data-name="Fill 189" d="M0,16.414s5.519,4.277,17.886-2.544A81.817,81.817,0,0,1,43.257,5.288S40.915-1.567,30.568.333,0,16.414,0,16.414" transform="translate(561.208 162.068)" fill="#15bf6a"/>
  <path id="Fill_190" data-name="Fill 190" d="M8.443,34.551A31.66,31.66,0,0,1,3.884,18.19,45.009,45.009,0,0,0,.01.3C-.255-.271,4.82-.877,7.4,7.231s1.042,27.32,1.042,27.32" transform="translate(563.293 125.985)" fill="#15bf6a"/>
  <path id="Fill_191" data-name="Fill 191" d="M0,11.788s7.193,4.65,18.577-2.055S32.632,5.044,32.632,5.044,24.448-2.172,17.287.658,0,11.788,0,11.788" transform="translate(574.986 140.596)" fill="#15bf6a"/>
  <path id="Fill_192" data-name="Fill 192" d="M13.977,23.04s-4.9-1.011-7.669-10.26S0,0,0,0,3.859.52,8.1,6.623,13.977,23.04,13.977,23.04" transform="translate(566.361 114.308)" fill="#15bf6a"/>
  <path id="Fill_193" data-name="Fill 193" d="M0,16.083s6.586.738,12.216-8.291S18.1,2.273,18.1,2.273,19.2-2.041,12.6,1.218,0,16.083,0,16.083" transform="translate(582.743 113.365)" fill="#15bf6a"/>
  <path id="Fill_194" data-name="Fill 194" d="M14.82,20.721s-2.477-6.961-7.874-9.968S0,0,0,0,3.561,5.767,6.7,6.2,14.82,20.721,14.82,20.721" transform="translate(569.807 97.312)" fill="#15bf6a"/>
  <path id="Fill_195" data-name="Fill 195" d="M0,13.712S-.011,4.729,5.114,1.641,17.325.771,17.325.771,8.8,1.759,6.25,5.919A47.1,47.1,0,0,1,0,13.712" transform="translate(584.894 91.928)" fill="#15bf6a"/>
  <path id="Fill_196" data-name="Fill 196" d="M15.887,7.3S12.9,8.886,9.1,5.477A15.027,15.027,0,0,0,0,2.086S5.184-1.245,8.079.512,14.092,7.686,15.887,7.3" transform="translate(567.927 87.419)" fill="#15bf6a"/>
  <path id="Fill_197" data-name="Fill 197" d="M0,8.184A6.661,6.661,0,0,1,4.928,3.372C9.737,2.289,16.281,5.193,16.281,5.193S13.09.864,8.326.1.178,2.834,0,8.184" transform="translate(582.318 78.655)" fill="#15bf6a"/>
  <path id="Fill_198" data-name="Fill 198" d="M11.515,2.121S3.557,4.466,0,1.851A10.772,10.772,0,0,1,5.618,0a13.123,13.123,0,0,1,5.9,2.119" transform="translate(569.361 79.076)" fill="#15bf6a"/>
  <path id="Fill_199" data-name="Fill 199" d="M0,9.141A11.773,11.773,0,0,0,3.227,3.719C3.75,1.137,7.529,0,7.529,0s-.8,6.326-3.247,7.693A10.689,10.689,0,0,1,0,9.141" transform="translate(579.135 66.474)" fill="#15bf6a"/>
  <path id="Fill_200" data-name="Fill 200" d="M8.986,7.712A11.767,11.767,0,0,0,3.631,4.376C1.059,3.8,0,0,0,0S6.308.923,7.626,3.4a10.684,10.684,0,0,1,1.36,4.311" transform="translate(570.323 67.701)" fill="#15bf6a"/>
  <path id="Fill_201" data-name="Fill 201" d="M26.313,3.112s3.6,1.172,0,4.059L10.986,4.931,0,3.328,4.49,0C18.054,1.931,26.313,3.112,26.313,3.112" transform="translate(427.933 354.909)" fill="#848787"/>
  <path id="Fill_202" data-name="Fill 202" d="M23.716,2.662,19.226,5.99h-.009L5.7,4.012,0,3.178,4.968,0c6.984.984,13.293,1.884,18.748,2.662" transform="translate(408.707 352.247)" fill="#848787"/>
  <path id="Fill_203" data-name="Fill 203" d="M25.113,2.69,20.145,5.868,0,2.925,6.28,0c6.675.956,12.983,1.856,18.832,2.69" transform="translate(388.562 349.556)" fill="#848787"/>
  <path id="Fill_204" data-name="Fill 204" d="M20.163,1.856l-6.28,2.925h-.009l-3.459-.507L0,2.747,7.162,0h.009c4.452.637,8.793,1.256,12.992,1.856" transform="translate(374.679 347.7)" fill="#848787"/>
  <path id="Fill_205" data-name="Fill 205" d="M25.957,2.812,18.8,5.559,8,3.984,0,2.812,6.215,0c6.759.965,13.367,1.9,19.742,2.812" transform="translate(355.884 344.888)" fill="#848787"/>
  <path id="Fill_206" data-name="Fill 206" d="M24.185,2.55,17.97,5.362,4.237,3.356,0,2.737,6.337,0c6.027.862,11.989,1.715,17.848,2.55" transform="translate(337.914 342.339)" fill="#848787"/>
  <path id="Fill_207" data-name="Fill 207" d="M29.528,3.3,23.192,6.036h-.009L6.627,3.609H6.618L0,2.643,6.356,0C14.108,1.106,21.87,2.212,29.528,3.3" transform="translate(314.723 339.039)" fill="#848787"/>
  <path id="Fill_208" data-name="Fill 208" d="M21.57,2.475,15.214,5.118,0,2.9,4.218,0Q12.837,1.223,21.57,2.475" transform="translate(299.509 336.564)" fill="#848787"/>
  <path id="Fill_209" data-name="Fill 209" d="M27.035,2.925l-4.218,2.9-.562-.084L0,2.484,6.552,0h.009c6.693.956,13.545,1.94,20.473,2.925" transform="translate(276.693 333.639)" fill="#848787"/>
  <path id="Fill_210" data-name="Fill 210" d="M25.085,2.728,18.533,5.212l-2.5-.366L0,2.5,5.943,0c6.178.881,12.58,1.791,19.142,2.728" transform="translate(258.16 330.911)" fill="#848787"/>
  <path id="Fill_211" data-name="Fill 211" d="M22.338,2.475,16.4,4.977,4.218,3.2,0,2.578,5.006,0C10.518.788,16.32,1.612,22.338,2.475" transform="translate(241.765 328.437)" fill="#848787"/>
  <path id="Fill_212" data-name="Fill 212" d="M21.073,2.287,16.067,4.865,0,2.522,5.034,0c4.987.712,10.359,1.472,16.039,2.287" transform="translate(225.698 326.15)" fill="#848787"/>
  <path id="Fill_213" data-name="Fill 213" d="M25.572,2.934,20.538,5.456l-1.8-.263L0,2.447,5.043,0c5.7.816,12.636,1.8,20.529,2.934" transform="translate(205.16 323.215)" fill="#848787"/>
  <path id="Fill_214" data-name="Fill 214" d="M337.7,268.1h0c-.019-.021-1.954-2.121-6.327-2.811-4.223-.668-29.873-4.275-32.784-4.684l-.025,0-.7,1.64L26.716,225.211V223.1L0,220.055,38.9,9.14A12,12,0,0,1,41.04,4.57a11.007,11.007,0,0,1,3.695-3.142A13.571,13.571,0,0,1,51.089,0c10.494,0,310.532,2.32,313.56,2.344a7.846,7.846,0,0,1,.808-.035,11.4,11.4,0,0,1,3.322.492,8.305,8.305,0,0,1,3.89,2.469c2.032,2.338,2.724,5.927,2.058,10.667-2.058,14.639-32.677,233.468-33.979,242.777v.01c-.014.084-1.424,8.445-3.046,9.373ZM44.367,11.876h0L8.128,210.605l324.959,41.246,32.19-234.978-320.909-5Z" transform="translate(170.841 89.924)" fill="#171b33"/>
  <path id="Fill_215" data-name="Fill 215" d="M357.15,5l-32.19,234.978L0,198.729,36.24,0,357.15,5" transform="translate(178.969 101.801)" fill="#fffffe"/>
  <path id="Fill_216" data-name="Fill 216" d="M351.254,0V7.968l-99.13,90.694s-2.888,3.59-11.718,2.109c-10.068-1.7-41.715-7.968-41.715-7.968L0,53.4l.488-2.475c11.849,2.381,42.127,8.287,42.127,8.287s3.281,1.406,5-3.281L236.5,92.334s10.162,2.812,17.342-3.44S351.254,0,351.254,0" transform="translate(157.286 358.021)" fill="#848787"/>
  <path id="Fill_217" data-name="Fill 217" d="M399.12,141.007a22.933,22.933,0,0,1-5.44-.63l-188.887-36.4a1.942,1.942,0,0,0-1.716-2.147c-.46-.092-46.059-9.264-50.263-10.2a9.264,9.264,0,0,0-2-.234,4.765,4.765,0,0,0-3.825,1.48l-14.268-2.737-2.1-.4-.481-.092C94.544,82.816,11.177,66.824,6.065,65.852,2.105,65.1.7,64.054.224,63.309a1.084,1.084,0,0,1-.215-.766,3.621,3.621,0,0,1,2.231-2.55C4.524,59.08,163.935,2.418,170.72.006L170.738,0l26.716,3.046V5.155L468.6,42.183l.7-1.64.663.093c10.5,1.479,28.646,4.041,32.145,4.594,4.406.7,6.309,2.791,6.328,2.813-.05.047-.368.339-.927.85-21.06,19.286-90.256,82.632-96.488,88.044a15.99,15.99,0,0,1-6.05,3.27A20.766,20.766,0,0,1,399.12,141.007ZM168.377,47.1c-4.258,0-6.058.928-6.076.937L96.214,76.867c-1.472.642-2.217,1.3-2.215,1.949,0,.81,1.191,1.327,1.2,1.332,1.722.333,172.217,33.36,176.382,33.906a13.184,13.184,0,0,0,1.682.111,8.748,8.748,0,0,0,4.8-1.207l.071-.045c5.284-3.315,51.76-32.466,56.408-35.343,1.575-.975,2.305-1.835,2.172-2.556-.191-1.035-2.152-1.425-2.172-1.428-.038-.006-6.313-1-16.115-2.569l.363-.209.322-.185,22.928,3.74,21.429,3.506,24.307,3.975L411.341,85.7c.014-.011,4.419-3.448,10.564-8.267,2.192-1.712,5.1-3.986,8.183-6.4,1.044-.82,2.1-1.646,3.153-2.472l.041-.032c1.637-1.283,3.331-2.609,4.953-3.889,2.637-2.067,5.418-4.246,7.873-6.178,3.931-3.092,6.784-5.349,8.034-6.356,1.185-.951,1.716-1.816,1.578-2.572-.187-1.025-1.564-1.483-1.578-1.487-.043-.006-8.36-1.2-21.823-3.112l-1.653-.236-.115-.016c-5.033-.718-10.738-1.531-16.979-2.41q-8.785-1.253-18.833-2.69l-5.518-.788-.032,0-7.443-1.063h-.009l-9.212-1.312-.174-.025q-5.106-.727-10.355-1.475c-5.34-.76-10.885-1.554-16.248-2.321l-.038-.006-1.561-.223c-8.328-1.182-16.759-2.384-23.173-3.3-2.824-.4-5.687-.81-8.455-1.206l-.043-.006c-2.9-.414-5.892-.843-8.853-1.263-4.966-.706-9.872-1.408-14.617-2.087l-.849-.121-5.007-.716h-.01l-9.852-1.4-.145-.021-.3-.043L264,20.932c-3.639-.521-7.212-1.031-10.667-1.523l-.232-.033-6.433-.918q-5.066-.727-9.79-1.4l-.1-.014-.11-.016-6.039-.861c-5.066-.728-9.781-1.4-13.942-1.994l-.069-.01-6.518-.93-8.25-1.182-.47-.067-.051-.007-5.365-.769c-.7-.107-1.276-.19-1.7-.25-.3-.044-.545-.079-.723-.106a56.382,56.382,0,0,0-7.88-.692c-3.573,0-4.3.685-4.306.692l-2.493.994L166,16.986l-10.443,4.163-12.139,4.846-13.255,5.288-12.233,4.884c-.716.286-1.071.57-1.053.846.028.445,1.043.717,1.053.72L131.808,40,150.8,43.1l17.839,2.915,24.429,3.994h.009L292.694,66.3c-.469.263-.761.435-.815.467C251.92,60.377,183.842,49.44,176.831,48.042A43.725,43.725,0,0,0,168.377,47.1Z" transform="translate(0.103 309.979)" fill="#a6a9ad"/>
  <path id="Fill_218" data-name="Fill 218" d="M8.727,0,24.054,2.24C22.751,3.29,19.8,5.624,16.02,8.6L0,6.225,8.727,0" transform="translate(430.192 359.839)" fill="#848787"/>
  <path id="Fill_219" data-name="Fill 219" d="M15.036,1.125,31.056,3.5c-2.371,1.865-5.062,3.974-7.874,6.178L6.074,7.039,0,6.112,7.452,0l7.583,1.125" transform="translate(415.156 364.939)" fill="#848787"/>
  <path id="Fill_220" data-name="Fill 220" d="M34.027,3.581,25.3,9.805,17.717,8.68,0,6.055,9.515,0,23.032,1.978h.009l10.986,1.6" transform="translate(404.892 356.259)" fill="#848787"/>
  <path id="Fill_221" data-name="Fill 221" d="M7.462,0,24.569,2.634c-2.662,2.1-5.437,4.265-8.146,6.393L0,6.45,7.434.188,7.462,0" transform="translate(413.769 371.979)" fill="#848787"/>
  <path id="Fill_222" data-name="Fill 222" d="M21.4,1.95,37.824,4.528c-2.868,2.25-5.662,4.434-8.183,6.4L8.559,7.594,0,6.244l.028-.169L9.009,0,21.4,1.95" transform="translate(392.368 376.478)" fill="#848787"/>
  <path id="Fill_223" data-name="Fill 223" d="M12.87,7.921,0,5.943,7.593,0l6.253.919L31.562,3.544,24.11,9.656,12.87,7.921" transform="translate(391.046 361.395)" fill="#848787"/>
  <path id="Fill_224" data-name="Fill 224" d="M13.039,0,34.121,3.337C28.037,8.108,23.557,11.6,23.557,11.6L0,7.752l.009-.037S11.52.609,13,.225L13.039,0" transform="translate(387.887 384.072)" fill="#848787"/>
  <path id="Fill_225" data-name="Fill 225" d="M24.251,2.662l-.028.188L16.789,9.112,4.4,7.162,0,6.468,6.937,0,18.176,1.735l6.074.928" transform="translate(396.98 369.316)" fill="#848787"/>
  <path id="Fill_226" data-name="Fill 226" d="M39.718,4.284,30.2,10.34l-6.253-.919L4.331,6.515,0,5.868,10.405,0l3.459.507h.009L34.018,3.45l5.7.834" transform="translate(374.689 351.975)" fill="#848787"/>
  <path id="Fill_227" data-name="Fill 227" d="M28.281,3.1,21.345,9.571,3.628,6.787H3.619L0,6.225l.028-.207L8.062,0l7.349,1.125L28.281,3.1" transform="translate(375.635 366.214)" fill="#848787"/>
  <path id="Fill_228" data-name="Fill 228" d="M31.272,3.477l-8.98,6.075-.028.169L6.5,7.227,0,6.2,9.149,0h.009L26.875,2.784l4.4.694" transform="translate(370.105 373.001)" fill="#848787"/>
  <path id="Fill_229" data-name="Fill 229" d="M37.346,3.844l-.037.225c-1.481.384-12.993,7.49-12.993,7.49l-.009.037L0,7.621l.028-.14S11.539.384,13.021,0L28.787,2.494l8.559,1.35" transform="translate(363.58 380.228)" fill="#848787"/>
  <path id="Fill_230" data-name="Fill 230" d="M27.119,2.906,19.526,8.849,12.177,7.724,0,5.849,7.5,0l19.62,2.906" transform="translate(371.52 358.49)" fill="#848787"/>
  <path id="Fill_231" data-name="Fill 231" d="M22.076,1.575,32.49,3.1,22.085,8.971,7.949,6.88,0,5.709,11.277,0l10.8,1.575" transform="translate(352.603 348.872)" fill="#848787"/>
  <path id="Fill_232" data-name="Fill 232" d="M11.1.647,23.275,2.522,15.242,8.54l-.028.207-7.7-1.209L0,6.356,6.909,0,11.1.647" transform="translate(360.421 363.692)" fill="#848787"/>
  <path id="Fill_233" data-name="Fill 233" d="M20.923,1.772l-9.149,6.2L0,6.112V6.1L9.609,0l7.7,1.209,3.619.562" transform="translate(358.331 371.229)" fill="#848787"/>
  <path id="Fill_234" data-name="Fill 234" d="M22.179,2.091l4.331.647-7.5,5.849-4.19-.647L0,5.662,8.043,0,22.179,2.091" transform="translate(352.51 355.752)" fill="#848787"/>
  <path id="Fill_235" data-name="Fill 235" d="M27.953,2.418l6.5,1.031c-1.481.384-12.993,7.481-12.993,7.481l-.028.14L0,7.564S11.165.384,12.646,0L16.18.562,27.953,2.418" transform="translate(342.151 376.779)" fill="#848787"/>
  <path id="Fill_236" data-name="Fill 236" d="M23.051,2.119l-9.609,6.1v.009L9.909,7.668,0,6.1,9.552.15,9.58,0l5.953.938,7.518,1.181" transform="translate(344.889 369.11)" fill="#848787"/>
  <path id="Fill_237" data-name="Fill 237" d="M23.36,2.531,16.452,8.886,10.5,7.949,0,6.3,6.927,0,8.54.253,23.36,2.531" transform="translate(343.97 361.161)" fill="#848787"/>
  <path id="Fill_238" data-name="Fill 238" d="M31.956,3.178,20.679,8.886,7.48,6.927,0,5.821,10.227,0,23.96,2.006l8,1.172" transform="translate(331.924 345.694)" fill="#848787"/>
  <path id="Fill_239" data-name="Fill 239" d="M20.623,1.959l7.949,1.172L20.529,8.793,18.917,8.54,0,5.634,7.424,0l13.2,1.959" transform="translate(331.98 352.621)" fill="#848787"/>
  <path id="Fill_240" data-name="Fill 240" d="M25.666,1.969l9.909,1.566C34.094,3.919,22.929,11.1,22.929,11.1L0,7.358C2.634,5.812,11.962.384,13.227.056L13.236,0l12.43,1.969" transform="translate(319.222 373.244)" fill="#848787"/>
  <path id="Fill_241" data-name="Fill 241" d="M22.713,1.865l-.028.15L13.133,7.968.7,6,0,5.887,10.855,0h.009l1.35.216,10.5,1.65" transform="translate(331.756 367.245)" fill="#848787"/>
  <path id="Fill_242" data-name="Fill 242" d="M29.528,3.141,22.6,9.439l-1.35-.216h-.009L4.115,6.533,0,5.887,9.093,0l1.519.235L29.528,3.141" transform="translate(321.369 358.021)" fill="#848787"/>
  <path id="Fill_243" data-name="Fill 243" d="M28.356,2.69,17.5,8.578,0,5.812,11.23,0,28.356,2.69" transform="translate(314.254 364.554)" fill="#848787"/>
  <path id="Fill_244" data-name="Fill 244" d="M31.871,3.047,21.645,8.868,13.208,7.621,0,5.662,11.061,0h.009L27.625,2.428h.009l4.237.619" transform="translate(310.28 342.647)" fill="#848787"/>
  <path id="Fill_245" data-name="Fill 245" d="M23.266,2.352,15.842,7.987l-1.519-.235L0,5.549,7.349,0l8.437,1.247,7.48,1.106" transform="translate(316.139 350.269)" fill="#848787"/>
  <path id="Fill_246" data-name="Fill 246" d="M224.435,23.913c9.927,1.584,16.114,2.569,16.114,2.569s4.921.938,0,3.984-56.478,35.387-56.478,35.387-2.269,1.64-6.487,1.1S1.2,33.043,1.2,33.043s-3.29-1.406,1.013-3.281L68.3.937s3.984-2.109,14.53,0C89.646,2.3,153.54,12.571,197.879,19.666c10.2,1.631,19.357,3.094,26.557,4.246" transform="translate(94.103 357.084)" fill="#848787"/>
  <path id="Fill_247" data-name="Fill 247" d="M39.661,4.2l-.009.056c-1.266.328-10.593,5.755-13.227,7.3L0,7.237C2.784,5.6,11.858.328,13.1,0l8.352,1.321,17.5,2.766.7.112" transform="translate(292.797 369.045)" fill="#848787"/>
  <path id="Fill_248" data-name="Fill 248" d="M28.806,3.009,19.713,8.9,4.5,6.506H4.49L0,5.8,9.233,0l5.249.806,14.323,2.2" transform="translate(301.656 355.012)" fill="#848787"/>
  <path id="Fill_249" data-name="Fill 249" d="M30.231,3.037,19,8.849,10.649,7.528,0,5.84,10.893,0H10.9L26.116,2.39l4.115.647" transform="translate(295.253 361.517)" fill="#848787"/>
  <path id="Fill_250" data-name="Fill 250" d="M26.481,2.85,19.132,8.4l-5.249-.806L0,5.456,7.255,0l6.019.891L26.481,2.85" transform="translate(297.006 347.419)" fill="#848787"/>
  <path id="Fill_251" data-name="Fill 251" d="M32.556,3.271,21.495,8.933l-6.019-.891L0,5.755,10.162,0l.562.084L25.938,2.306l6.618.965" transform="translate(288.785 339.376)" fill="#848787"/>
  <path id="Fill_252" data-name="Fill 252" d="M29.106,3.122l-9.233,5.8-12-1.884L0,5.8,8.811,0l6.412.985L29.106,3.122" transform="translate(281.783 351.89)" fill="#848787"/>
  <path id="Fill_253" data-name="Fill 253" d="M27.588,2.587,16.7,8.427,0,5.793,11.1,0l12,1.884,4.49.7" transform="translate(278.558 358.93)" fill="#848787"/>
  <path id="Fill_254" data-name="Fill 254" d="M102.074,14.08l10.649,1.687c-1.247.328-10.321,5.6-13.1,7.237L0,6.712C2.334,5.437,11.745.328,13.039,0h.009l.862.141L32.753,3.122,50.639,5.953,68.711,8.812l16.667,2.634,16.7,2.634" transform="translate(193.18 353.278)" fill="#848787"/>
  <path id="Fill_255" data-name="Fill 255" d="M15.308,7.5,0,5.146,8.5,0l4.987.741H13.5L28.975,3.028,21.72,8.484,15.308,7.5" transform="translate(275.286 344.391)" fill="#848787"/>
  <path id="Fill_256" data-name="Fill 256" d="M34.909,3.619,24.747,9.374h-.009l-4.987-.741L2.072,6.018,0,5.709,10.152,0l2.5.366L34.909,3.619" transform="translate(264.038 335.758)" fill="#848787"/>
  <path id="Fill_257" data-name="Fill 257" d="M28.919,2.934l-8.811,5.8L10.855,7.284,0,5.577,9.8.2,9.824,0l3.787.581L28.919,2.934" transform="translate(261.675 348.956)" fill="#848787"/>
  <path id="Fill_258" data-name="Fill 258" d="M27.766,2.69l-11.1,5.793L0,5.849V5.84L10.64,0l9.252,1.453L27.766,2.69" transform="translate(261.891 356.24)" fill="#848787"/>
  <path id="Fill_259" data-name="Fill 259" d="M27.344,2.616l-8.5,5.146-3.787-.581L0,4.856,9.664,0,27.344,2.616" transform="translate(256.445 341.776)" fill="#848787"/>
  <path id="Fill_260" data-name="Fill 260" d="M38.677,4.125,28.525,9.834,11.174,7.265,0,5.606,10.471,0,22.648,1.781l16.03,2.344" transform="translate(235.513 331.633)" fill="#848787"/>
  <path id="Fill_261" data-name="Fill 261" d="M28.713,2.887l-10.64,5.84v.009L0,5.877,10.321,0l7.537,1.181L28.713,2.887" transform="translate(243.818 353.353)" fill="#848787"/>
  <path id="Fill_262" data-name="Fill 262" d="M10.583,7.209,0,5.54,9.655.047,9.664,0l3.225.488L27.944,2.812l-.028.2-9.8,5.381L10.583,7.209" transform="translate(243.556 346.144)" fill="#848787"/>
  <path id="Fill_263" data-name="Fill 263" d="M28.1,2.569l2.072.309L20.511,7.734l-3.225-.488L0,4.584,10.752,0,28.1,2.569" transform="translate(235.934 338.898)" fill="#848787"/>
  <path id="Fill_264" data-name="Fill 264" d="M28.207,2.719,17.886,8.6,0,5.765,10.911,0l6.712,1.05L28.207,2.719" transform="translate(225.932 350.634)" fill="#848787"/>
  <path id="Fill_265" data-name="Fill 265" d="M27.531,2.662l-.009.047L17.867,8.2l-6.712-1.05L0,5.4,10.1.066,10.245,0,27.531,2.662" transform="translate(225.689 343.482)" fill="#848787"/>
  <path id="Fill_266" data-name="Fill 266" d="M23.922,2.269,13.17,6.852,0,4.828.028,4.64,8.624,0l4.125.609L23.922,2.269" transform="translate(222.764 336.629)" fill="#848787"/>
  <path id="Fill_267" data-name="Fill 267" d="M34.169,3.224,23.7,8.83l-4.125-.609L2.063,5.634,0,5.324,12.083,0l1.8.263L29.95,2.605l4.218.619" transform="translate(211.815 328.409)" fill="#848787"/>
  <path id="Fill_268" data-name="Fill 268" d="M29.753,2.934,18.842,8.7,0,5.718,11.09,0,18.6,1.181,29.753,2.934" transform="translate(207.09 347.7)" fill="#848787"/>
  <path id="Fill_269" data-name="Fill 269" d="M27.147,2.606,27,2.672,16.9,8.006,9.393,6.824,0,5.353,10.189,0l3.787.581,13.17,2.025" transform="translate(208.787 340.876)" fill="#848787"/>
  <path id="Fill_270" data-name="Fill 270" d="M26.51,2.587l-8.6,4.64-.028.188L14.1,6.833,0,4.659,9,0,26.51,2.587" transform="translate(204.878 334.042)" fill="#848787"/>
  <path id="Fill_271" data-name="Fill 271" d="M32.687,2.934,20.6,8.259,9.318,6.59,0,5.212,12.608,0l1.34.188L32.687,2.934" transform="translate(191.211 325.474)" fill="#848787"/>
  <path id="Fill_272" data-name="Fill 272" d="M28.685,2.869,18.5,8.221h-.009L9.15,6.75,0,5.315,10.059,0h.009l4.518.694,14.1,2.175" transform="translate(190.292 338.007)" fill="#848787"/>
  <path id="Fill_273" data-name="Fill 273" d="M30.316,2.943,19.226,8.661l-.862-.141h-.009L0,5.624V5.615L11.577,0l9.336,1.472h.009l9.393,1.472" transform="translate(187.864 344.757)" fill="#848787"/>
  <path id="Fill_274" data-name="Fill 274" d="M21.691,1.669l2.063.309-9,4.659-4.518-.694h-.009L0,4.369.009,4.3,10.406,0,21.691,1.669" transform="translate(190.123 332.064)" fill="#848787"/>
  <path id="Fill_275" data-name="Fill 275" d="M12.824,4.284,0,2.4,5.071,0c2.8.4,7.668,1.1,14.136,2.025L14.164,4.471l-1.34-.188" transform="translate(190.995 321.19)" fill="#848787"/>
  <path id="Fill_276" data-name="Fill 276" d="M19.123.956l18.354,2.9c-1.294.328-10.7,5.437-13.039,6.712h-.009L0,6.571C1.294,5.906,11.708.6,13.058.263L13.1,0l6.027.956" transform="translate(168.741 349.425)" fill="#848787"/>
  <path id="Fill_277" data-name="Fill 277" d="M56.1,10.433a1.929,1.929,0,0,1,1.716,2.147c-1.716,4.687-5,3.281-5,3.281S22.537,9.955,10.688,7.574c-1.219-.253-2.25-.459-3.028-.619C-.617,5.23.011,1.48.011,1.48S1.614-.7,5.832.234,56.1,10.433,56.1,10.433" transform="translate(147.086 401.376)" fill="#a6a9ad"/>
  <path id="Fill_278" data-name="Fill 278" d="M16.779.638,29.6,2.522,16.995,7.734,6.487,6.178,0,5.212,12.392,0H12.4l4.378.638" transform="translate(174.216 322.953)" fill="#848787"/>
  <path id="Fill_279" data-name="Fill 279" d="M21,1.556l9.318,1.378-10.4,4.3L19.91,7.3,11.586,6.027,0,4.246V4.237L10.49,0,21,1.556" transform="translate(170.213 329.13)" fill="#848787"/>
  <path id="Fill_280" data-name="Fill 280" d="M29.51,2.85,19.451,8.165,8.249,6.4,0,5.109,10.958,0l8.324,1.275L29.51,2.85" transform="translate(170.841 335.158)" fill="#848787"/>
  <path id="Fill_281" data-name="Fill 281" d="M33.353,3.2,21.776,8.812v.009l-6.027-.956L0,5.372l.019-.141L13,0,24.2,1.763,33.353,3.2" transform="translate(166.088 341.56)" fill="#848787"/>
  <path id="Fill_282" data-name="Fill 282" d="M17.1,1.048l-5.071,2.4L7.649,2.81H7.639L0,1.695V1.685L2.493.692s1.566-1.556,12.186,0c.431.066,1.247.178,2.418.356" transform="translate(178.969 320.143)" fill="#848787"/>
  <path id="Fill_283" data-name="Fill 283" d="M20.5,1.125,8.108,6.337,0,5.137,12.861,0V.009L20.5,1.125" transform="translate(166.107 321.828)" fill="#848787"/>
  <path id="Fill_284" data-name="Fill 284" d="M30.934,2.831l-.037.263c-1.35.337-11.764,5.643-13.058,6.309L0,6.487C1.425,5.756,11.68.525,13.021.2l.028-.2,2.137.338L30.934,2.831" transform="translate(150.903 346.594)" fill="#848787"/>
  <path id="Fill_285" data-name="Fill 285" d="M38.274,4.031,27.316,9.139,0,4.846,12.139,0V.009L26.687,2.25,38.274,4.031" transform="translate(143.526 331.127)" fill="#848787"/>
  <path id="Fill_286" data-name="Fill 286" d="M18.551,1.2l6.487.966L14.548,6.4v.009L0,4.172V4.162L10.442,0l8.108,1.2" transform="translate(155.665 326.965)" fill="#848787"/>
  <path id="Fill_287" data-name="Fill 287" d="M48.82,5.587,35.837,10.818l-.019.141-2.137-.338L14.83,7.64,0,5.3V5.287L13.255,0,40.571,4.293,48.82,5.587" transform="translate(130.271 335.973)" fill="#848787"/>
  <path id="Fill_288" data-name="Fill 288" d="M32.041,2.981l-.028.2c-1.34.328-11.6,5.559-13.021,6.29L0,6.365S11.746.347,13.189,0L32.041,2.981" transform="translate(131.911 343.613)" fill="#848787"/>
  <path id="Fill_289" data-name="Fill 289" d="M157.774,36.427l-.488,2.475L3.75,8.464S0,8,0,5.887V.731A3.21,3.21,0,0,1,.112,0S-.394,2.062,6.168,3.309,147.1,30.334,147.1,30.334s-.628,3.75,7.649,5.475c.778.16,1.809.366,3.028.619" transform="translate(0 372.523)" fill="#848787"/>
  <path id="Fill_290" data-name="Fill 290" d="M13.287.009l14.83,2.344C26.673,2.7,14.927,8.718,14.927,8.718L1.054,6.45s-2.371-.619,0-1.566L13.287,0V.009" transform="translate(116.984 341.26)" fill="#848787"/>
  <path id="Fill_291" data-name="Fill 291" d="M76.469,39.85,52.041,35.857,34.2,32.942l-18.992-3.1L1.337,27.57l-.039.24.061-.236-.039-.011a2.87,2.87,0,0,1-.532-.213,1,1,0,0,1-.24-.171c-.054-.057-.062-.092-.062-.108s.008-.08.144-.2a2.866,2.866,0,0,1,.757-.405l12.233-4.884L26.876,16.3l12.139-4.846L49.457,7.291,62.319,2.155l2.493-.994.082-.054-.068-.068.062.074.006-.006-.068-.068.062.074C64.9,1.1,65.67.485,69.029.486a55.331,55.331,0,0,1,7.844.689c.433.066,1.247.178,2.417.356h0c2.8.4,7.668,1.1,14.136,2.025,5.7.816,12.636,1.8,20.529,2.934C118.945,7.2,124.316,7.963,130,8.778c5.512.788,11.314,1.612,17.332,2.475,6.178.881,12.58,1.791,19.142,2.728a.243.243,0,0,0,.069-.481c-6.563-.938-12.965-1.847-19.142-2.728-6.018-.862-11.82-1.687-17.332-2.474-5.681-.816-11.052-1.575-16.039-2.288C106.133,4.875,99.2,3.891,93.5,3.075c-6.468-.928-11.333-1.622-14.136-2.025h0C78.19.872,77.373.76,76.945.694A55.851,55.851,0,0,0,69.029,0c-3.639,0-4.4.689-4.478.762l.171.173-.09-.226L62.138,1.7,49.277,6.84,38.834,11,26.7,15.848,13.441,21.135,1.208,26.019a3.323,3.323,0,0,0-.89.484A.76.76,0,0,0,0,27.072a.673.673,0,0,0,.244.49,2.077,2.077,0,0,0,.631.364,3.618,3.618,0,0,0,.361.12l.022.005,13.873,2.268,18.992,3.1,17.839,2.915,24.429,3.993a.243.243,0,0,0,.078-.48h0" transform="translate(116.74 319.899)" fill="#fffffe"/>
  <path id="Fill_292" data-name="Fill 292" d="M188.88.484c4.453.637,8.793,1.256,12.993,1.856C208.546,3.3,214.855,4.2,220.7,5.03c6.984.985,13.292,1.884,18.748,2.662,6.782.966,12.238,1.744,16,2.28l4.323.617,1.5.214.035-.241-.075.231.013,0a3.176,3.176,0,0,1,.791.424,1.848,1.848,0,0,1,.444.46,1.094,1.094,0,0,1,.184.6,1.673,1.673,0,0,1-.312.9,5.469,5.469,0,0,1-1.2,1.245c-1.3,1.048-4.254,3.383-8.031,6.354-2.371,1.865-5.062,3.974-7.874,6.177-2.662,2.1-5.437,4.265-8.146,6.394-2.868,2.249-5.661,4.433-8.183,6.4-3.042,2.386-5.683,4.453-7.564,5.924l-2.206,1.724-.795.621.15.192.039-.24L194.99,44.127l-24.307-3.975-21.429-3.506-22.929-3.74L.283,12.292a.244.244,0,0,0-.078.481L126.247,33.386l22.929,3.74,21.429,3.506,24.307,3.975,23.556,3.853a.243.243,0,0,0,.189-.049s4.481-3.5,10.565-8.268c2.521-1.968,5.315-4.153,8.183-6.4,2.709-2.128,5.484-4.293,8.147-6.393,2.812-2.2,5.5-4.312,7.874-6.178,3.778-2.972,6.731-5.306,8.036-6.357a5.97,5.97,0,0,0,1.3-1.361,2.159,2.159,0,0,0,.389-1.164,1.6,1.6,0,0,0-.293-.915,2.714,2.714,0,0,0-.927-.794,3.442,3.442,0,0,0-.548-.246l-.041-.009s-8.259-1.181-21.823-3.113c-5.456-.778-11.765-1.678-18.749-2.662-5.849-.834-12.158-1.734-18.832-2.69-4.2-.6-8.54-1.219-12.992-1.856a.243.243,0,0,0-.069.481" transform="translate(192.936 347.457)" fill="#fffffe"/>
  <path id="Fill_293" data-name="Fill 293" d="M.209.484C6.9,1.44,13.755,2.424,20.682,3.409Q29.3,4.632,38.033,5.884c7.753,1.106,15.514,2.212,23.173,3.3,6.027.862,11.99,1.715,17.848,2.55,6.759.966,13.367,1.9,19.742,2.812a.243.243,0,0,0,.069-.481c-6.375-.909-12.983-1.847-19.742-2.813C73.264,10.416,67.3,9.564,61.275,8.7,53.616,7.614,45.855,6.508,38.1,5.4Q29.385,4.164,20.751,2.927C13.823,1.943,6.971.959.278,0A.243.243,0,1,0,.209.484" transform="translate(283.011 333.396)" fill="#fffffe"/>
  <path id="Fill_294" data-name="Fill 294" d="M.209.484l10.986,1.6,15.327,2.24a.243.243,0,1,0,.07-.481L11.265,1.606.278,0a.243.243,0,1,0-.07.481" transform="translate(427.689 357.993)" fill="#fffffe"/>
  <path id="Fill_295" data-name="Fill 295" d="M.208.484,20.353,3.427l5.7.834L39.57,6.24a.243.243,0,1,0,.07-.481L26.123,3.78l-5.7-.834L.279,0a.243.243,0,1,0-.07.481" transform="translate(388.319 352.238)" fill="#fffffe"/>
  <path id="Fill_296" data-name="Fill 296" d="M.208.484,4.445,1.1,18.178,3.109l8,1.172,10.8,1.575L47.387,7.383l3.459.507a.243.243,0,1,0,.071-.481L47.458,6.9,37.043,5.374,26.244,3.8l-8-1.172L4.515.621.279,0a.244.244,0,0,0-.07.482h0" transform="translate(337.671 344.832)" fill="#fffffe"/>
  <path id="Fill_297" data-name="Fill 297" d="M.208.484,16.763,2.912a.243.243,0,1,0,.07-.481L.279,0A.243.243,0,1,0,.208.484" transform="translate(321.107 342.404)" fill="#fffffe"/>
  <path id="Fill_298" data-name="Fill 298" d="M.208.484l4.378.638L17.409,3.006h0l1.34.187h0L37.489,5.94,55.356,8.546l4.218.619,12.177,1.781,16.03,2.344,2.5.366,22.254,3.253.561.084,15.215,2.222,6.618.965A.243.243,0,1,0,135,19.7l-6.618-.966L113.17,16.511l-.562-.084L90.354,13.173l-2.5-.366L71.821,10.464,59.644,8.683l-4.218-.619L37.559,5.458,18.821,2.712h0l-1.34-.187h0L4.657.64.279,0a.244.244,0,1,0-.07.482h0" transform="translate(186.374 322.709)" fill="#fffffe"/>
  <path id="Fill_299" data-name="Fill 299" d="M.208.484,7.848,1.6a.243.243,0,1,0,.07-.481L.279,0A.243.243,0,1,0,.208.484" transform="translate(178.725 321.594)" fill="#fffffe"/>
  <path id="Fill_300" data-name="Fill 300" d="M.208.484,15.685,2.771l6.018.891L34.91,5.621l8.437,1.247,7.48,1.106,13.2,1.959L71.975,11.1,86.111,13.2l4.331.647,19.62,2.906,6.253.919,17.717,2.624,7.584,1.125,16.02,2.371a.243.243,0,0,0,.071-.481l-16.02-2.372L134.1,19.81l-17.717-2.625-6.253-.919L90.513,13.361l-4.331-.647L72.047,10.623,64.1,9.452,50.9,7.492,43.418,6.386,34.982,5.14,21.773,3.181,15.755,2.29.279,0A.243.243,0,1,0,.208.484" transform="translate(288.542 344.888)" fill="#fffffe"/>
  <path id="Fill_301" data-name="Fill 301" d="M.208.484l8.108,1.2,6.487.966L25.311,4.205l9.318,1.378L45.916,7.252l2.061.309,17.512,2.587,4.124.609,11.174,1.659,17.351,2.569,2.071.309,17.68,2.616,4.987.741a.243.243,0,0,0,.071-.481l-4.987-.741-17.679-2.616L98.21,14.5,80.858,11.936,69.684,10.276,65.56,9.667,48.049,7.08l-2.062-.309L34.7,5.1,25.383,3.724,14.874,2.168,8.388,1.2.279,0A.243.243,0,1,0,.208.484" transform="translate(165.864 326.722)" fill="#fffffe"/>
  <path id="Fill_302" data-name="Fill 302" d="M.206.484l4.518.694,14.1,2.175,3.787.581,13.17,2.025L53.067,8.62l3.225.488,15.054,2.325,3.787.581L90.44,14.367l6.412.984,13.882,2.137,5.249.806,14.324,2.2,1.519.234,18.917,2.906,1.612.253,14.821,2.278,4.19.647,12.177,1.875,7.349,1.125,12.87,1.978L215,33.527l6.074.928,17.107,2.634a.243.243,0,0,0,.074-.481l-17.108-2.634-6.074-.928-11.239-1.734-12.871-1.978-7.349-1.125L171.44,26.335l-4.19-.647L152.43,23.41l-1.611-.253L131.9,20.251l-1.518-.235-14.324-2.2-5.249-.806L96.926,14.87l-6.412-.984L75.207,11.533l-3.787-.581L56.365,8.627,53.14,8.139,35.855,5.477,22.684,3.452,18.9,2.871,4.8.7.281,0A.243.243,0,1,0,.206.484" transform="translate(200.117 337.764)" fill="#fffffe"/>
  <path id="Fill_303" data-name="Fill 303" d="M.206.484l14.549,2.24L26.341,4.506,34.665,5.78,44.892,7.355a.243.243,0,0,0,.074-.481L34.739,5.3,26.415,4.024,14.829,2.243.28,0A.243.243,0,1,0,.206.484" transform="translate(155.421 330.893)" fill="#fffffe"/>
  <path id="Fill_304" data-name="Fill 304" d="M.206.484,17.923,3.268l4.4.694,12.392,1.95L51.135,8.49a.243.243,0,0,0,.075-.481L34.787,5.431,22.394,3.481,18,2.787.281,0A.243.243,0,0,0,.206.484" transform="translate(379.02 372.757)" fill="#fffffe"/>
  <path id="Fill_305" data-name="Fill 305" d="M.2.484,1.555.7l10.5,1.65,5.953.937,15.214,2.39,3.619.562a.243.243,0,0,0,.075-.481L33.3,5.2,25.6,3.987,18.082,2.806,12.13,1.869,1.631.219.282,0A.243.243,0,0,0,.205.484" transform="translate(342.377 367.002)" fill="#fffffe"/>
  <path id="Fill_306" data-name="Fill 306" d="M.206.484,15.42,2.874l4.115.647,17.127,2.69a.243.243,0,0,0,.075-.481L19.611,3.04,15.5,2.393.281,0A.243.243,0,0,0,.206.484" transform="translate(305.912 361.274)" fill="#fffffe"/>
  <path id="Fill_307" data-name="Fill 307" d="M.206.484,9.6,1.955l7.509,1.181L28.262,4.89l6.712,1.049L45.557,7.608l7.537,1.181L63.949,10.5,73.2,11.948l7.874,1.237,12,1.884,4.49.7a.243.243,0,0,0,.075-.481l-4.49-.7-12-1.884-7.874-1.238-9.252-1.453L53.169,8.309,45.632,7.127,35.05,5.459l-6.712-1.05L17.182,2.656,9.674,1.475.281,0A.243.243,0,1,0,.206.484" transform="translate(208.544 345.985)" fill="#fffffe"/>
  <path id="Fill_308" data-name="Fill 308" d="M.206.484,27.521,4.777l8.249,1.294,11.2,1.762,9.149,1.434,9.337,1.472a.243.243,0,1,0,.075-.48L56.2,8.786,47.048,7.352,35.846,5.59,27.6,4.3.281,0A.243.243,0,0,0,.206.484" transform="translate(143.282 335.73)" fill="#fffffe"/>
  <path id="Fill_309" data-name="Fill 309" d="M.2.483l.862.141L19.91,3.606,37.8,6.436,55.868,9.3,72.535,11.93l16.7,2.634,10.649,1.687,8.353,1.322,17.5,2.765.7.112,12.43,1.969,9.908,1.566,3.534.562L164.082,26.4l6.5,1.031,15.767,2.494,8.559,1.35,21.082,3.337a.243.243,0,1,0,.076-.481L194.98,30.8l-8.559-1.35-15.767-2.493-6.5-1.032-11.774-1.856L148.85,23.5l-9.909-1.566-12.43-1.968-.7-.113-17.5-2.765L99.956,15.77,89.306,14.083l-16.7-2.634L55.944,8.815,37.871,5.956,19.986,3.125,1.144.144.282,0A.243.243,0,0,0,.2.483" transform="translate(205.985 353.034)" fill="#fffffe"/>
  <path id="Fill_310" data-name="Fill 310" d="M.205.483l14.83,2.344L33.886,5.808l2.137.337L51.772,8.639l6.027.956,18.354,2.9a.243.243,0,1,0,.076-.481l-18.354-2.9-6.027-.956L36.1,5.665l-2.137-.337L15.111,2.347.281,0a.243.243,0,1,0-.076.48" transform="translate(130.027 341.026)" fill="#fffffe"/>
  <path id="Fill_311" data-name="Fill 311" d="M13.375.006a7.838,7.838,0,0,0-1.02.386C9.121,1.785.136,6.39.133,6.392a.243.243,0,0,0,.222.433s.733-.376,1.857-.945C3.9,5.025,6.458,3.736,8.731,2.629c1.137-.554,2.2-1.062,3.049-1.448.423-.193.791-.355,1.085-.475A5.156,5.156,0,0,1,13.489.48a.243.243,0,1,0-.113-.473h0" transform="translate(131.668 343.37)" fill="#fffffe"/>
  <path id="Fill_312" data-name="Fill 312" d="M13.375.007a7.225,7.225,0,0,0-.924.347C9.552,1.593,1.552,5.676.3,6.317l.111.217L.3,6.316.134,6.4a.244.244,0,0,0,.218.436l.169-.084,0,0c.712-.365,3.631-1.855,6.539-3.294,1.454-.72,2.9-1.426,4.074-1.973.585-.273,1.1-.507,1.506-.681A7.1,7.1,0,0,1,13.491.48a.243.243,0,1,0-.116-.473" transform="translate(150.491 346.548)" fill="#fffffe"/>
  <path id="Fill_313" data-name="Fill 313" d="M13.373.007a7.551,7.551,0,0,0-.932.354C9.507,1.62,1.4,5.752.263,6.336l.111.217-.1-.222a1.443,1.443,0,0,0-.158.079.243.243,0,0,0,.251.417l0,0a1.093,1.093,0,0,1,.1-.05l.013-.006c.645-.332,3.572-1.825,6.5-3.276,1.466-.726,2.934-1.44,4.117-1.994C11.7,1.221,12.22.985,12.633.808A7.241,7.241,0,0,1,13.492.48a.243.243,0,0,0-.118-.473" transform="translate(168.367 349.444)" fill="#fffffe"/>
  <path id="Fill_314" data-name="Fill 314" d="M13.817,0h-.009l-.06.007a6.412,6.412,0,0,0-.876.344C10.152,1.577,2.7,5.624.652,6.741l.117.214V6.712H.759l-.116.03-.517.281a.243.243,0,1,0,.235.427l.514-.281L.759,6.955V7.2H.769l.117-.03c1.166-.637,4.1-2.233,6.907-3.709,1.4-.738,2.771-1.447,3.869-1.991.549-.271,1.03-.5,1.411-.674a6.27,6.27,0,0,1,.8-.317l-.06-.236V.486h.009a.243.243,0,1,0,0-.486" transform="translate(192.411 353.035)" fill="#fffffe"/>
  <path id="Fill_315" data-name="Fill 315" d="M14.1.008a5.642,5.642,0,0,0-.85.354C10.62,1.623,3.376,5.832.935,7.271l.124.209L.94,7.268c-.518.292-.819.471-.82.472a.243.243,0,0,0,.249.418s.3-.176.811-.466l0,0C2.573,6.87,5.537,5.143,8.307,3.582,9.693,2.8,11.029,2.061,12.1,1.5c.533-.281,1-.52,1.367-.7a5.59,5.59,0,0,1,.763-.322A.243.243,0,1,0,14.1.008" transform="translate(291.738 368.801)" fill="#fffffe"/>
  <path id="Fill_316" data-name="Fill 316" d="M14.1.008a5.76,5.76,0,0,0-.867.361C10.544,1.659,3.123,5.98.814,7.336l.123.209L.816,7.334c-.395.226-.636.365-.689.4l-.047.037-.009.009a.243.243,0,0,0,.345.343l.009-.009L.253,7.939l.125.209c.041-.025.288-.167.68-.391l0,0c1.316-.773,4.306-2.516,7.123-4.106C9.592,2.854,10.957,2.1,12.048,1.52c.545-.289,1.021-.532,1.4-.713a5.672,5.672,0,0,1,.78-.328A.243.243,0,0,0,14.1.008h0" transform="translate(318.285 373.057)" fill="#fffffe"/>
  <path id="Fill_317" data-name="Fill 317" d="M12.828.008a5.906,5.906,0,0,0-1.02.455c-1.58.824-4.5,2.606-7.028,4.186S.112,7.6.112,7.6a.243.243,0,0,0,.264.409s.7-.448,1.766-1.128c1.6-1.018,4.045-2.555,6.222-3.872C9.451,2.356,10.474,1.752,11.29,1.3c.408-.228.766-.418,1.052-.56A3.942,3.942,0,0,1,12.95.479a.243.243,0,0,0-.122-.471" transform="translate(341.908 376.535)" fill="#fffffe"/>
  <path id="Fill_318" data-name="Fill 318" d="M13.174.008a6.456,6.456,0,0,0-1.032.45C8.925,2.086.12,7.515.116,7.517a.243.243,0,1,0,.255.414s.719-.443,1.821-1.114C3.845,5.811,6.358,4.292,8.6,2.99c1.119-.651,2.169-1.248,3.006-1.7.418-.225.784-.414,1.076-.554A4.161,4.161,0,0,1,13.3.479a.243.243,0,1,0-.122-.471" transform="translate(363.365 379.984)" fill="#fffffe"/>
  <path id="Fill_319" data-name="Fill 319" d="M13.175.008a6.332,6.332,0,0,0-1.033.45C8.924,2.088.12,7.524.116,7.526a.243.243,0,1,0,.255.414S1.09,7.5,2.192,6.825C3.844,5.817,6.359,4.3,8.6,2.992c1.119-.652,2.169-1.249,3.005-1.7.418-.226.784-.415,1.076-.555A4.209,4.209,0,0,1,13.3.479a.243.243,0,1,0-.122-.471" transform="translate(387.653 384.053)" fill="#fffffe"/>
  <path id="Fill_320" data-name="Fill 320" d="M9.4,0H9.393L9.256.042.107,6.238a.244.244,0,0,0,.273.4L9.529.445l-.136-.2V.486H9.4A.243.243,0,1,0,9.4,0" transform="translate(369.861 372.757)" fill="#fffffe"/>
  <path id="Fill_321" data-name="Fill 321" d="M9.088.042.107,6.116a.243.243,0,1,0,.273.4L9.36.445a.243.243,0,1,0-.273-.4" transform="translate(392.153 376.235)" fill="#fffffe"/>
  <path id="Fill_322" data-name="Fill 322" d="M9.721.038.113,6.14a.243.243,0,0,0,.261.411L9.982.448A.243.243,0,1,0,9.721.038" transform="translate(358.087 370.986)" fill="#fffffe"/>
  <path id="Fill_323" data-name="Fill 323" d="M9.667.037.114,5.989A.243.243,0,1,0,.372,6.4L9.924.45A.243.243,0,0,0,9.667.037" transform="translate(344.645 369.017)" fill="#fffffe"/>
  <path id="Fill_324" data-name="Fill 324" d="M11.108,0H11.1l-.116.029L.127,5.916a.243.243,0,0,0,.232.428L11.214.457,11.1.243V.486h.009a.243.243,0,1,0,0-.486" transform="translate(331.512 367.002)" fill="#fffffe"/>
  <path id="Fill_325" data-name="Fill 325" d="M11.362.027.132,5.839a.243.243,0,1,0,.223.432L11.585.459a.243.243,0,0,0-.223-.432" transform="translate(314.011 364.311)" fill="#fffffe"/>
  <path id="Fill_326" data-name="Fill 326" d="M11.146,0h-.009l-.115.028L.128,5.869a.243.243,0,1,0,.23.429L11.251.457,11.136.243V.486h.009a.243.243,0,0,0,0-.486" transform="translate(295.01 361.274)" fill="#fffffe"/>
  <path id="Fill_327" data-name="Fill 327" d="M11.229.028.131,5.821a.243.243,0,0,0,.225.432L11.455.459a.243.243,0,0,0-.226-.431" transform="translate(278.315 358.687)" fill="#fffffe"/>
  <path id="Fill_328" data-name="Fill 328" d="M10.766.03.126,5.87A.243.243,0,0,0,.361,6.3L11,.457A.243.243,0,1,0,10.766.03" transform="translate(261.648 355.996)" fill="#fffffe"/>
  <path id="Fill_329" data-name="Fill 329" d="M10.575.032l-.132.075L.123,5.984a.244.244,0,0,0,.241.423L10.684.53l.132-.075a.243.243,0,1,0-.241-.422" transform="translate(243.575 353.034)" fill="#fffffe"/>
  <path id="Fill_330" data-name="Fill 330" d="M11.041.028.129,5.793a.243.243,0,0,0,.227.431L11.268.458a.243.243,0,1,0-.227-.43" transform="translate(225.689 350.391)" fill="#fffffe"/>
  <path id="Fill_331" data-name="Fill 331" d="M9.922.03.126,5.41a.243.243,0,0,0,.235.427l9.8-5.381A.243.243,0,1,0,9.922.03" transform="translate(261.432 348.91)" fill="#fffffe"/>
  <path id="Fill_332" data-name="Fill 332" d="M9,.037,8.926.084l-.005,0L.11,5.89A.243.243,0,1,0,.377,6.3l8.81-5.8L9.259.45A.243.243,0,0,0,9,.037" transform="translate(281.539 351.6)" fill="#fffffe"/>
  <path id="Fill_333" data-name="Fill 333" d="M9.778.032.123,5.525a.244.244,0,0,0,.241.423L10.019.455A.243.243,0,1,0,9.778.032" transform="translate(243.312 345.948)" fill="#fffffe"/>
  <path id="Fill_334" data-name="Fill 334" d="M10.225.028.13,5.362a.243.243,0,0,0,.227.431L10.453.459a.243.243,0,0,0-.227-.431" transform="translate(225.445 343.304)" fill="#fffffe"/>
  <path id="Fill_335" data-name="Fill 335" d="M11.221.027.132,5.745a.243.243,0,1,0,.223.432L11.444.46a.243.243,0,1,0-.223-.432" transform="translate(206.847 347.457)" fill="#fffffe"/>
  <path id="Fill_336" data-name="Fill 336" d="M11.715.024.137,5.639a.243.243,0,1,0,.213.438L11.927.462a.243.243,0,1,0-.212-.438" transform="translate(187.621 344.513)" fill="#fffffe"/>
  <path id="Fill_337" data-name="Fill 337" d="M13.135.018.152,5.249A.243.243,0,0,0,.334,5.7L13.318.47a.244.244,0,0,0-.182-.452" transform="translate(165.864 341.317)" fill="#fffffe"/>
  <path id="Fill_338" data-name="Fill 338" d="M11.1.023.141,5.132a.243.243,0,0,0,.206.441L11.3.464A.243.243,0,0,0,11.1.023" transform="translate(170.598 334.914)" fill="#fffffe"/>
  <path id="Fill_339" data-name="Fill 339" d="M10.311,0H10.3l-.114.028L.13,5.343a.243.243,0,1,0,.227.43L10.415.458,10.3.243V.486h.009a.243.243,0,1,0,0-.486" transform="translate(190.049 337.764)" fill="#fffffe"/>
  <path id="Fill_340" data-name="Fill 340" d="M10.329.028.139,5.38.252,5.6V5.352H.243a.244.244,0,0,0,0,.487H.252l.113-.028L10.555.459a.243.243,0,0,0-.226-.431" transform="translate(208.535 340.633)" fill="#fffffe"/>
  <path id="Fill_341" data-name="Fill 341" d="M9.347.037.114,5.84a.243.243,0,0,0,.259.412L9.606.449A.243.243,0,0,0,9.347.037" transform="translate(301.412 354.768)" fill="#fffffe"/>
  <path id="Fill_342" data-name="Fill 342" d="M9.2.039.111,5.926a.243.243,0,1,0,.265.408L9.468.448A.243.243,0,0,0,9.2.039" transform="translate(321.126 357.777)" fill="#fffffe"/>
  <path id="Fill_343" data-name="Fill 343" d="M7.007.063.08,6.363a.243.243,0,0,0,.327.36L7.334.424a.243.243,0,1,0-.327-.36" transform="translate(343.727 360.918)" fill="#fffffe"/>
  <path id="Fill_344" data-name="Fill 344" d="M6.987.064.079,6.42a.243.243,0,1,0,.33.358L7.317.422a.243.243,0,0,0-.33-.358" transform="translate(360.178 363.449)" fill="#fffffe"/>
  <path id="Fill_345" data-name="Fill 345" d="M8.131.048.1,6.067a.243.243,0,0,0,.292.389L8.423.438a.243.243,0,0,0-.292-.39" transform="translate(375.42 365.97)" fill="#fffffe"/>
  <path id="Fill_346" data-name="Fill 346" d="M7.52.057.086,6.319A.244.244,0,0,0,.4,6.691L7.834.429A.243.243,0,1,0,7.52.057" transform="translate(413.525 371.923)" fill="#fffffe"/>
  <path id="Fill_347" data-name="Fill 347" d="M7.12.063l-.1.094,0,0L.078,6.627a.243.243,0,1,0,.332.356L7.346.515,7.18.337l.164.18.1-.094A.243.243,0,0,0,7.12.063" transform="translate(396.736 368.98)" fill="#fffffe"/>
  <path id="Fill_348" data-name="Fill 348" d="M7.541.055.089,6.167A.243.243,0,1,0,.4,6.543L7.85.431A.243.243,0,0,0,7.541.055" transform="translate(414.913 364.696)" fill="#fffffe"/>
  <path id="Fill_349" data-name="Fill 349" d="M7.686.052.093,5.995a.243.243,0,0,0,.3.383L7.986.435a.243.243,0,1,0-.3-.383" transform="translate(390.803 361.152)" fill="#fffffe"/>
  <path id="Fill_350" data-name="Fill 350" d="M7.593.052.094,5.9a.243.243,0,1,0,.3.384L7.892.435a.243.243,0,1,0-.3-.384" transform="translate(371.277 358.246)" fill="#fffffe"/>
  <path id="Fill_351" data-name="Fill 351" d="M8.146.044.1,5.706a.244.244,0,0,0,.28.4L8.427.442a.243.243,0,0,0-.28-.4" transform="translate(352.266 355.509)" fill="#fffffe"/>
  <path id="Fill_352" data-name="Fill 352" d="M7.521.049.1,5.683a.244.244,0,0,0,.294.388L7.815.437A.243.243,0,0,0,7.521.049" transform="translate(331.737 352.378)" fill="#fffffe"/>
  <path id="Fill_353" data-name="Fill 353" d="M7.446.049.1,5.6a.243.243,0,1,0,.293.388L7.739.437A.243.243,0,0,0,7.446.049" transform="translate(315.895 350.025)" fill="#fffffe"/>
  <path id="Fill_354" data-name="Fill 354" d="M7.353.049.1,5.5a.243.243,0,1,0,.292.389L7.645.438A.243.243,0,1,0,7.353.049" transform="translate(296.763 347.176)" fill="#fffffe"/>
  <path id="Fill_355" data-name="Fill 355" d="M8.62.035.118,5.182A.243.243,0,1,0,.369,5.6L8.872.452A.243.243,0,0,0,8.62.035" transform="translate(275.043 344.148)" fill="#fffffe"/>
  <path id="Fill_356" data-name="Fill 356" d="M9.8.026.134,4.882a.243.243,0,0,0,.218.435L10.017.461A.243.243,0,0,0,9.8.026" transform="translate(256.201 341.532)" fill="#fffffe"/>
  <path id="Fill_357" data-name="Fill 357" d="M11.05.019.3,4.6h0l-.15.065a.244.244,0,0,0,.2.446l.15-.066h0L11.241.467a.243.243,0,1,0-.19-.447" transform="translate(235.541 338.655)" fill="#fffffe"/>
  <path id="Fill_358" data-name="Fill 358" d="M8.723.03.127,4.67A.243.243,0,0,0,.359,5.1l8.6-4.64A.243.243,0,1,0,8.723.03" transform="translate(222.549 336.386)" fill="#fffffe"/>
  <path id="Fill_359" data-name="Fill 359" d="M9.131.027l-9,4.659a.243.243,0,1,0,.224.432l9-4.659A.243.243,0,1,0,9.131.027" transform="translate(204.635 333.799)" fill="#fffffe"/>
  <path id="Fill_360" data-name="Fill 360" d="M10.546.019.15,4.321a.244.244,0,0,0,.186.45l10.4-4.3a.243.243,0,0,0-.186-.45" transform="translate(189.89 331.821)" fill="#fffffe"/>
  <path id="Fill_361" data-name="Fill 361" d="M10.642.018.152,4.255a.243.243,0,1,0,.183.451L10.824.469a.243.243,0,1,0-.183-.451" transform="translate(169.97 328.887)" fill="#fffffe"/>
  <path id="Fill_362" data-name="Fill 362" d="M8.829.045.1,6.27a.243.243,0,0,0,.283.4L9.112.442a.243.243,0,1,0-.283-.4" transform="translate(429.949 359.596)" fill="#fffffe"/>
  <path id="Fill_363" data-name="Fill 363" d="M9.637.038.122,6.093.08,6.127l-.009.009a.243.243,0,0,0,.345.343L.425,6.47.253,6.3l.131.2L9.9.448A.243.243,0,1,0,9.637.038" transform="translate(404.639 356.015)" fill="#fffffe"/>
  <path id="Fill_364" data-name="Fill 364" d="M10.538.031.133,5.9.08,5.94l-.009.009a.243.243,0,1,0,.345.343l.009-.009L.253,6.111l.12.212L10.777.455a.243.243,0,0,0-.239-.424" transform="translate(374.436 351.731)" fill="#fffffe"/>
  <path id="Fill_365" data-name="Fill 365" d="M11.419.026.142,5.735l.11.217V5.709H.243a.243.243,0,0,0,0,.486H.252l.11-.026L11.639.461a.244.244,0,0,0-.22-.435" transform="translate(352.351 348.629)" fill="#fffffe"/>
  <path id="Fill_366" data-name="Fill 366" d="M10.35.032.123,5.853a.244.244,0,0,0,.241.423L10.591.455A.244.244,0,1,0,10.35.032" transform="translate(331.681 345.451)" fill="#fffffe"/>
  <path id="Fill_367" data-name="Fill 367" d="M11.314,0H11.3l-.111.026L.132,5.688a.243.243,0,0,0,.222.433L11.415.46,11.3.243V.486h.009a.243.243,0,1,0,0-.486" transform="translate(310.036 342.404)" fill="#fffffe"/>
  <path id="Fill_368" data-name="Fill 368" d="M10.294.032.132,5.787.252,6V5.755H.243a.244.244,0,0,0,0,.487H.252l.12-.032L10.534.455a.243.243,0,0,0-.24-.423" transform="translate(288.533 339.133)" fill="#fffffe"/>
  <path id="Fill_369" data-name="Fill 369" d="M10.276.031.124,5.74a.243.243,0,1,0,.238.424L10.515.456a.243.243,0,0,0-.238-.424" transform="translate(263.794 335.514)" fill="#fffffe"/>
  <path id="Fill_370" data-name="Fill 370" d="M10.6.029.129,5.635a.243.243,0,1,0,.23.429L10.829.458A.243.243,0,1,0,10.6.029" transform="translate(235.269 331.39)" fill="#fffffe"/>
  <path id="Fill_371" data-name="Fill 371" d="M12.228.021.145,5.345a.243.243,0,1,0,.2.445L12.424.466a.243.243,0,1,0-.2-.445" transform="translate(211.572 328.165)" fill="#fffffe"/>
  <path id="Fill_372" data-name="Fill 372" d="M12.7.071l-.009.009.172.172L12.768.028.16,5.24l.093.225V5.221H.244a.244.244,0,1,0,0,.487H.252L.346,5.69,12.954.478l.079-.053.009-.009A.244.244,0,0,0,12.7.071" transform="translate(190.958 325.222)" fill="#fffffe"/>
  <path id="Fill_373" data-name="Fill 373" d="M12.645,0h-.009l-.094.019L.149,5.23a.244.244,0,0,0,.189.449L12.73.467,12.636.243V.486h.009a.243.243,0,1,0,0-.486" transform="translate(173.973 322.71)" fill="#fffffe"/>
  <path id="Fill_374" data-name="Fill 374" d="M4.6.048.108,3.376l.145.2V3.328H.244a.244.244,0,1,0,0,.487H.253A.246.246,0,0,0,.4,3.767L4.888.439A.243.243,0,0,0,4.6.048" transform="translate(427.68 354.665)" fill="#fffffe"/>
  <path id="Fill_375" data-name="Fill 375" d="M5.049.071,5.04.08l.171.173L5.08.048.112,3.226a.243.243,0,0,0,.263.41L5.343.458,5.384.425,5.393.416A.243.243,0,0,0,5.05.071" transform="translate(408.463 351.994)" fill="#fffffe"/>
  <path id="Fill_376" data-name="Fill 376" d="M6.43.023.15,2.948l.1.221V2.925H.243a.243.243,0,0,0,0,.486H.252l.1-.022L6.636.464a.243.243,0,0,0-.2-.441h0" transform="translate(388.31 349.313)" fill="#fffffe"/>
  <path id="Fill_377" data-name="Fill 377" d="M7.415,0H7.405L7.318.016.156,2.763a.243.243,0,1,0,.174.454L7.492.471,7.405.244V.486h.009a.243.243,0,0,0,0-.486" transform="translate(374.436 347.457)" fill="#fffffe"/>
  <path id="Fill_378" data-name="Fill 378" d="M6.358.022.143,2.834a.243.243,0,0,0,.2.443L6.559.465a.243.243,0,1,0-.2-.443" transform="translate(355.641 344.645)" fill="#fffffe"/>
  <path id="Fill_379" data-name="Fill 379" d="M6.6,0H6.59l-.1.02L.156,2.757l.1.223V2.737H.244a.243.243,0,1,0,0,.486H.253l.1-.02L6.686.466,6.59.244V.486H6.6A.243.243,0,1,0,6.6,0" transform="translate(337.661 342.095)" fill="#fffffe"/>
  <path id="Fill_380" data-name="Fill 380" d="M6.506.019.15,2.662a.243.243,0,0,0,.187.45L6.692.468a.243.243,0,0,0-.187-.45" transform="translate(314.479 338.795)" fill="#fffffe"/>
  <path id="Fill_381" data-name="Fill 381" d="M4.324.043.105,2.94a.243.243,0,0,0,.276.4L4.6.444a.243.243,0,0,0-.275-.4" transform="translate(299.266 336.32)" fill="#fffffe"/>
  <path id="Fill_382" data-name="Fill 382" d="M6.806,0H6.8L6.71.016.157,2.5a.243.243,0,0,0,.173.455L6.882.471,6.8.244V.487h.009a.244.244,0,0,0,0-.487" transform="translate(276.449 333.396)" fill="#fffffe"/>
  <path id="Fill_383" data-name="Fill 383" d="M6.092.019.149,2.522a.243.243,0,1,0,.189.448L6.281.468A.243.243,0,1,0,6.092.019" transform="translate(257.917 330.668)" fill="#fffffe"/>
  <path id="Fill_384" data-name="Fill 384" d="M5.137.027.131,2.6a.243.243,0,0,0,.223.433L5.36.46A.243.243,0,1,0,5.137.027" transform="translate(241.522 328.193)" fill="#fffffe"/>
  <path id="Fill_385" data-name="Fill 385" d="M5.168.026.134,2.548a.243.243,0,0,0,.218.435L5.386.461A.243.243,0,1,0,5.168.026" transform="translate(225.455 325.906)" fill="#fffffe"/>
  <path id="Fill_386" data-name="Fill 386" d="M5.18.024.137,2.471a.243.243,0,0,0,.212.438L5.393.462A.243.243,0,1,0,5.18.024" transform="translate(204.916 322.972)" fill="#fffffe"/>
  <path id="Fill_387" data-name="Fill 387" d="M5.211.023.139,2.423a.243.243,0,1,0,.208.44L5.419.464a.243.243,0,0,0-.208-.44" transform="translate(190.752 320.947)" fill="#fffffe"/>
  <path id="Fill_388" data-name="Fill 388" d="M7.91,10.2l-.338,4.69L0,14.124,1.061,0,8.593.722,7.91,10.2" transform="translate(313.479 193.388)" fill="#4b4f4d"/>
  <path id="Fill_389" data-name="Fill 389" d="M39.422,8.893,38.369,24.9a5.26,5.26,0,0,1-5.686,5.123L4.765,27A5.623,5.623,0,0,1,.02,20.82L1.3,5.044A5.252,5.252,0,0,1,6.9.024L16.659.99l.213.021-.351,4.676,7.572.762.338-4.69,10.1,1a5.676,5.676,0,0,1,4.888,6.132" transform="translate(296.958 201.824)" fill="#d5d6da"/>
  <path id="Fill_390" data-name="Fill 390" d="M56.3,37.888,1.7,30.312C2.7,22.377,0,0,0,0,14.565,8.278,29.733,17.994,36.26,23.779,48.25,34.438,56.3,37.888,56.3,37.888" transform="translate(371.047 296.299)" fill="#027aff"/>
  <path id="Fill_391" data-name="Fill 391" d="M107.8,42.4s2.7,22.377,1.7,30.312L0,57.521S11.656,31.287,16.261,22.966C20.479,15.348,24.061,2.091,24.613,0c4.1,2.486,9.065,5.25,12.989,7.263C44.929,11,49.138,16.72,55.32,20.859c6.235,4.169,9.016,2.328,22.975,6.987C84.641,29.952,96.037,35.725,107.8,42.4" transform="translate(263.244 253.895)" fill="#027aff"/>
  <path id="Fill_392" data-name="Fill 392" d="M71.31,113.812c-.022,2.659-.084,5.664-.241,9.24-.684,15.155-10.684,26.976-10.684,26.976-15.351-6.052-38.38-15.4-44.622-19.38A46.491,46.491,0,0,1,3.8,120.377,139.061,139.061,0,0,1,5.367,103.6,24.519,24.519,0,0,0,0,84.6S26.213,24.242,26.176,21.317s-4.351-9.306-2.447-12.931C25.056,5.852,28.979,1.86,29.766,0c3.5,2.791,6.278,5.089,6.517,7.6.8,8.548,10.719,26.123,20.608,32.49,10.01,6.439,17.666.173,21.681-5.926C82.566,28.066,73.6,23.428,73.6,23.428s6.566-9.677,8.073-18.709c0,0,10.482,4.984,16.59,24.349,6.219,19.76,24.31,105.3,28.487,127.873,4.261,23.021,6.588,41.267,3.915,43.735L87.737,194.74l-.687.043c-1.2-2.776-3.6-9.071-3.655-15.312-.089-8.273-8.978-23.98-8.978-23.98s7.492-7.843,4.449-15.251c-2.981-7.26-7.425-25.888-7.557-26.429" transform="translate(368.136 141.908)" fill="#027aff"/>
  <path id="Fill_393" data-name="Fill 393" d="M58.649,187.988h0L20.41,182.682c-.4-.4-9.708-9.881-11.56-13.4-.393-.748-.914-1.647-1.518-2.689C5.1,162.739,1.725,156.914.727,151.368-.5,144.482.2,132.976.211,132.861l1.681,6.712c1.663,6.672,6.97,10.485,11.353,10.8.182.013.365.02.543.02a6.388,6.388,0,0,0,4.638-1.944,10.155,10.155,0,0,0,2.291-3.725c.324-.9.727-2.292,1.237-4.06.9-3.1,2.122-7.357,3.8-11.92a15.731,15.731,0,0,0,.87-5.5,27.232,27.232,0,0,0-.6-5.346,34.771,34.771,0,0,0-1.768-5.914.393.393,0,0,1,.051.037c1.463,1.109,6.558,5.006,10.7,8.579l.07-.286c2.212-8.882,13.468-54.012,17.888-70.251,2.131-7.833,4.22-13.55,6.385-17.481A16.02,16.02,0,0,1,64,26.922c2.435-1.8,20.918-8.051,21.1-8.114h.077A33.336,33.336,0,0,0,93.435,17.6a29,29,0,0,0,6.66-2.7,21.863,21.863,0,0,0,6.2-5.165l.459-.561C112.512,2.126,114.249,0,116.146,0c.071,0,.144,0,.217.009-.01.049-1.242,6.116-2.124,12.771a98.319,98.319,0,0,0-.89,9.973c-.09,3.381.176,5.749.793,7.039,1.257,2.635,3.078,3.7,5.186,4.941a16.865,16.865,0,0,1,7.381,7.321c4.28,8.075,36.507,60.5,36.832,61.026a21.7,21.7,0,0,1,3.27,5.159,24.724,24.724,0,0,1,2.1,13.845,140.982,140.982,0,0,0-1.565,16.772c-1.024-1.146-2.014-2.16-3.117-3.191-4.35-4.036-14.263-6.612-19.176-6.612a6.877,6.877,0,0,0-2.243.285,15.931,15.931,0,0,1-6.27,1.326,36.319,36.319,0,0,1-4.121-.289c-.669-.077-1.361-.162-2.093-.251a82.464,82.464,0,0,0-9.108-.785c-2.175,0-3.585.271-4.312.828-.155-.117-15.666-11.807-19.028-13.114a4.335,4.335,0,0,0-1.562-.318,3.67,3.67,0,0,0-3.15,2.182v.011l-6.126-3.554a6.539,6.539,0,0,0-3.6-1.289,4.509,4.509,0,0,0-3.594,1.872,12.477,12.477,0,0,0-3.769-.7c-1.979,0-3.251.732-3.782,2.176l3.606,3.574a3.385,3.385,0,0,0-1.091,2.194,2.944,2.944,0,0,0,1.026,2.2,57.188,57.188,0,0,0,7.428,5.071c-.664,2.518-4.191,15.451-8.352,22.966-4.552,8.223-16.144,34.292-16.261,34.554ZM98.779,78.4h0a4.934,4.934,0,0,0-3.459,1.438,5.668,5.668,0,0,0-1.656,3.606L92.381,99.217a5.631,5.631,0,0,0,4.746,6.178l27.918,3.028a5.048,5.048,0,0,0,.542.029,4.959,4.959,0,0,0,3.511-1.47,5.7,5.7,0,0,0,1.633-3.684l1.053-16.01a5.965,5.965,0,0,0-1.278-4.124,5.271,5.271,0,0,0-3.609-2.007l-10.1-1,.683-9.475-7.532-.721-.71,9.447-.213-.021-9.759-.967c-.16-.016-.322-.024-.483-.024Z" transform="translate(204.596 123.428)" fill="#027aff"/>
  <path id="Fill_394" data-name="Fill 394" d="M10.969,16.382a54.63,54.63,0,0,1-7.427-5.071,2.87,2.87,0,0,1,.064-4.39L0,3.347C1.394-.443,7.551,1.872,7.551,1.872c3.089-3.84,7.193-.582,7.193-.582l6.126,3.553L43.064,17.72a8.136,8.136,0,0,1,1.546-1.638c2.151-1.65,9.974-.432,15.512.208,5.559.642,7.066.176,10.392-1.037s16.274,1.553,21.419,6.327c1.247,1.164,2.225,2.193,3.116,3.191a46.49,46.49,0,0,0,11.96,10.272c6.242,3.98,29.272,13.328,44.622,19.38,8.125,3.2,14.033,5.464,14.033,5.464s8.888,15.707,8.978,23.98c.054,6.24,2.45,12.535,3.655,15.312.392.918.662,1.452.662,1.452l-28.5-3.955s-8.047-3.449-20.037-14.109c-6.527-5.786-21.695-15.5-36.26-23.779C82.393,52.107,71,46.334,64.652,44.228c-13.959-4.659-16.74-2.818-22.975-6.987-6.182-4.139-10.391-9.854-17.718-13.6-3.925-2.013-8.887-4.778-12.989-7.263" transform="translate(276.888 237.513)" fill="#e3909d"/>
  <path id="Fill_395" data-name="Fill 395" d="M70.5,104.659a17.012,17.012,0,0,1,.065,6.842c-1.507,9.032-8.073,18.709-8.073,18.709s8.967,4.638,4.973,10.731c-4.015,6.1-11.671,12.365-21.681,5.926-9.889-6.367-19.8-23.942-20.608-32.49-.238-2.507-3.02-4.805-6.517-7.6.349-.8.108-1.2-1.156-.92C9.279,99.288-1.625,89.837,5.714,69.221c0,0-2.417,2.118-5.714,4.64L12.6,62.95l-1.775-1.411c12.17-8.726,17.1-17,17.1-17,4.049-11.9.469-18.5.469-18.5,1.17-2.831-.964-12.972-.964-12.972s-2.976-4.445-5.673-2.993l-.058-.35S20.446,5.489,18.5,0c0,0,12.343,6.5,20.391,29.246,8.254,23.34,1.82,34.687,6.491,44.88C50.111,84.438,68.02,94.7,70.5,104.659" transform="translate(379.24 35.126)" fill="#171b33"/>
  <path id="Fill_396" data-name="Fill 396" d="M2.345,11.107a25.745,25.745,0,0,0,0-4.3A40.269,40.269,0,0,0,0,.211C1.608.959,4.662,2.053,5.514,0c0,0,3.58,6.6-.469,18.5a2.859,2.859,0,0,0-3.1-1.99s.261-2.756.4-5.4" transform="translate(402.124 61.165)" fill="#027aff"/>
  <path id="Fill_397" data-name="Fill 397" d="M8.211,3.285s2.134,10.141.964,12.972c-.852,2.053-3.906.959-5.514.211-.608-.292-1.014-.529-1.014-.529L0,4.233C.732,1.97,1.627.787,2.538.292c2.7-1.452,5.673,2.993,5.673,2.993" transform="translate(398.463 44.908)" fill="#027aff"/>
  <path id="Fill_398" data-name="Fill 398" d="M16.023.006A2.859,2.859,0,0,1,19.12,2S14.19,10.27,2.02,19L0,16.736s.741-.5,1.908-1.378C5.452,12.668,12.992,6.467,16.023.006" transform="translate(388.049 77.669)" fill="#027aff"/>
  <path id="Fill_399" data-name="Fill 399" d="M91.263,51.731a55.631,55.631,0,0,1,2.57-10.973l-4.285-14.4C77.989-6.715,34.979,6.282,34.979,6.282,1.436,15.737,4.815,42.5,4.386,47.614c-.431,5.141,11.5,40.509,11.5,40.509l-1.9.981c-3.549,1.73-7.448.068-10.273-3.621A19.12,19.12,0,0,1,.56,78.906C-1.561,71.1,3.024,68.521,3.024,68.521c-9.893-38.365,7-63.53,36.459-67.477,29.924-4.01,40.492,4.3,47,11.814,3.854,4.437,7.91,14.563,10.637,22.267,1.943,5.489,3.2,9.724,3.2,9.724l.058.35c-.911.5-1.806,1.678-2.538,3.941l2.647,11.7s.406.237,1.014.529a40.269,40.269,0,0,1,2.342,6.6,25.744,25.744,0,0,1,0,4.3c-8.906-.194-12.016-6.008-12.753-14.144-.036-.416-.063-.83-.08-1.253l0-.027a31.934,31.934,0,0,1,.246-5.117" transform="translate(300.62 0)" fill="#027aff"/>
  <path id="Fill_400" data-name="Fill 400" d="M1.758,1.253C2.5,9.389,5.605,15.2,14.511,15.4c-.136,2.647-.4,5.4-.4,5.4C11.083,27.261,3.543,33.463,0,36.152c0,0,.576-8,.662-14.272C.742,15.794,1.635.744,1.678,0c.017.423.044.838.08,1.253" transform="translate(389.957 56.874)" fill="#171b33"/>
  <path id="Fill_401" data-name="Fill 401" d="M78.818,28.986c.388.31.777.621,1.156.92-.787,1.86-4.709,5.852-6.037,8.386-1.9,3.625,2.4,10,2.447,12.931s-26.176,63.282-26.176,63.282S17.7,61.64,13.377,53.48C9.093,45.408,3.529,46.919.81,41.218c-2.7-5.653,2.222-29.783,2.222-29.783a4.213,4.213,0,0,1,1.218.3c2.815,1.053,2.769,1.7,4.876,1.2C10.966,12.51,15.86,10.011,17.743,0c0,0,15.9,8.054,23.852,14.2,8.034,6.2,20.87,18.377,37.222,14.79" transform="translate(317.928 112.001)" fill="#e3909d"/>
  <path id="Fill_402" data-name="Fill 402" d="M101.094,22.59l4.285,14.4a55.631,55.631,0,0,0-2.57,10.973c-3.044-8.792-14.685-18.107-25.762-19.475C66.054,27.125,52.215,22,52.215,22s-4.086,3.375-13.584,9.944-12.54,15.023-9.224,26.933c0,0,11.441,33.824,13.563,38.548,1.655,3.7,1.429,4.225,4.22,6.153v.009a42.594,42.594,0,0,1-.592,4.649c-1.883,10.011-6.777,12.51-8.618,12.939-2.107.494-2.06-.148-4.876-1.2a4.213,4.213,0,0,0-1.218-.3c-2.04-.165-3.69,1.921-10.067,9.723-7.58,9.29-21.194,9.076-21.194,9.076C-.75,133.228-.425,118,7.538,105.34c7.912-12.568,7.723-23.623,7.723-23.623,2.826,3.689,6.724,5.352,10.273,3.621l1.9-.981S15.5,48.99,15.932,43.849c.429-5.11-2.949-31.876,30.593-41.332,0,0,43.01-13,54.569,20.073" transform="translate(289.074 3.765)" fill="#171b33"/>
  <path id="Fill_403" data-name="Fill 403" d="M18.091,4.974,5.488,15.885l-.058.043C-1.137,15.742.091,9.057.091,9.057L12.8,0,14.3,1.3l2.02,2.259,1.775,1.411" transform="translate(373.752 93.102)" fill="#1f2121"/>
  <path id="Fill_404" data-name="Fill 404" d="M61.074,36.641c-16.352,3.587-29.188-8.594-37.222-14.79C15.9,15.709,0,7.654,0,7.654A42.6,42.6,0,0,0,.592,3.005c.8.552,1.85,1.214,3.263,2.1,6.386,4.026,19.855,9.854,26.966,7.343,3.817-1.348,8.85-4.824,12.69-7.77l.058-.043C46.866,2.118,49.283,0,49.283,0c-7.339,20.616,3.565,30.067,11.791,36.641" transform="translate(335.671 104.347)" fill="#b16677"/>
  <path id="Fill_405" data-name="Fill 405" d="M73.434,52.99c-.087,6.267-.662,14.272-.662,14.272-1.168.876-1.908,1.378-1.908,1.378l-1.492-1.3L56.658,76.394S55.43,83.079,62,83.265c-3.84,2.946-8.873,6.422-12.69,7.77-7.112,2.511-20.58-3.317-26.966-7.343-1.412-.89-2.466-1.552-3.263-2.1v-.009c-2.791-1.928-2.565-2.457-4.22-6.153C12.736,70.7,1.3,36.877,1.3,36.877c-3.316-11.91-.273-20.364,9.224-26.933S24.1,0,24.1,0,37.942,5.125,48.936,6.491C60.013,7.859,71.654,17.175,74.7,25.966a31.933,31.933,0,0,0-.246,5.117l0,.027c-.044.744-.936,15.794-1.016,21.881" transform="translate(317.185 25.765)" fill="#e3909d"/>
  <path id="Fill_406" data-name="Fill 406" d="M33.238,10.546s5.136-4.285,9.32-3.642c4.206.647,8.447,6.644,19.663,4.856C73.491,9.954,84.887,24.62,85.232,26.09s27.78,59.084,27.78,59.084l.008.011c.158.38,4.059,9.8,1.495,16.759-2.629,7.144-4.141,13.5-5.038,15.98s-3.139,5.964-7.472,5.649c-4.312-.313-9.668-4.047-11.352-10.8l-1.682-6.712S79.887,62.345,75.953,52.421C72.071,42.6,62.79,37.33,58.358,35.6c-4.412-1.728-16.935-7.014-18.351-7.787S14.648,14.239,7.56,9.631C.526,5.071.151,6.272.01,4.817S1.059-.654,4.979.092c3.939.758,28.26,10.455,28.26,10.455" transform="translate(115.835 150.231)" fill="#e3909d"/>
  <path id="Fill_407" data-name="Fill 407" d="M.126.857A25.029,25.029,0,0,1,4,7.886c1.02,2.561,1.817,5.055,2.629,6.741a16.826,16.826,0,0,0,1.784,2.736c1.094,1.422,2.39,2.878,3.407,4.053.508.586.947,1.1,1.249,1.5a5.134,5.134,0,0,1,.335.482.989.989,0,0,1,.064.126l0,.011h0l.211-.055h-.216l.006.055.211-.055h.15l-.347-.113-.018.113h.366l-.347-.113a.518.518,0,0,0,.984.322.671.671,0,0,0,.033-.208,1.01,1.01,0,0,0-.109-.426,4.414,4.414,0,0,0-.46-.712c-.7-.923-1.98-2.323-3.255-3.83a24.1,24.1,0,0,1-3.116-4.333C6.8,12.607,5.991,10.1,4.959,7.5A25.987,25.987,0,0,0,.909.179.518.518,0,0,0,.126.857" transform="translate(243.532 247.714)" fill="#57a6ff"/>
  <path id="Fill_408" data-name="Fill 408" d="M23.407.382s-.03.11-.074.3l.5.121-.5-.132c-.274,1.039-1.306,4.867-2.793,9.381a84.424,84.424,0,0,1-5.512,13.467c-1.849,3.342-4.8,9.487-7.686,15.7s-5.713,12.465-7.3,16a.518.518,0,0,0,.945.424C2.575,52.1,5.4,45.845,8.284,39.647S14.118,27.3,15.937,24.016a85.37,85.37,0,0,0,5.589-13.644c1.5-4.543,2.533-8.388,2.81-9.44l0-.012c.021-.088.039-.156.05-.2l.017-.066a.518.518,0,0,0-1-.271" transform="translate(264.021 253.095)" fill="#57a6ff"/>
  <path id="Fill_409" data-name="Fill 409" d="M9.146,43.568l-.012-.016c-.268-.378-5.087-7.312-6.639-19.6A193.53,193.53,0,0,1,1.035,1.184c0-.432,0-.658,0-.66A.518.518,0,1,0,0,.511s0,.236,0,.673A194.668,194.668,0,0,0,1.468,24.078c1.632,12.915,6.8,20.05,6.84,20.1a.518.518,0,0,0,.838-.608h0" transform="translate(278.462 193.267)" fill="#57a6ff"/>
  <path id="Fill_410" data-name="Fill 410" d="M.375,1.015s2.3.664,5.02,1.419,5.846,1.6,7.53,1.969a.518.518,0,0,0,.221-1.011c-1.633-.357-4.764-1.2-7.474-1.955C4.316,1.06,3.063.706,2.149.446S.663.02.662.02a.518.518,0,1,0-.287.995" transform="translate(148.555 160.26)" fill="#b16677"/>
  <path id="Fill_411" data-name="Fill 411" d="M.838.291A7.491,7.491,0,0,0,0,3.506,4.177,4.177,0,0,0,.7,5.89,5.074,5.074,0,0,0,3.034,7.679a41.875,41.875,0,0,0,9.182,2.288,88.625,88.625,0,0,1,8.874,1.645.518.518,0,1,0,.278-1,88.932,88.932,0,0,0-8.985-1.669A41,41,0,0,1,3.432,6.723,4.043,4.043,0,0,1,1.554,5.309a3.141,3.141,0,0,1-.519-1.8A6.483,6.483,0,0,1,1.769.745.518.518,0,0,0,.838.291h0" transform="translate(317.552 256.5)" fill="#b16677"/>
  <path id="Fill_412" data-name="Fill 412" d="M21.1,11.858.777.07a.518.518,0,0,0-.519.9L20.576,12.754a.518.518,0,1,0,.519-.9" transform="translate(299.116 242.927)" fill="#b16677"/>
  <path id="Fill_413" data-name="Fill 413" d="M.594,1.037.549.734l.033.3.012,0L.549.734l.033.3a.8.8,0,0,1,.083,0c.493,0,3.242.216,11.177,3.738,9.377,4.16,17.708,6.8,17.719,6.8a.518.518,0,1,0,.313-.987l-.371-.12c-1.709-.557-9.087-3.025-17.241-6.643C4.255.281,1.425.005.665,0A1.581,1.581,0,0,0,.442.013.518.518,0,1,0,.594,1.037" transform="translate(279.977 243.91)" fill="#b16677"/>
  <path id="Fill_414" data-name="Fill 414" d="M.265.97l17.354,9.715a.518.518,0,1,0,.505-.9L.771.066a.518.518,0,0,0-.506.9" transform="translate(283.921 238.867)" fill="#b16677"/>
  <path id="Fill_415" data-name="Fill 415" d="M1.036,52.332c.045-4.253.016-7.6.2-10.885A60.926,60.926,0,0,1,2.751,30.925c1.214-5.317,2.312-12.9,3.11-19.157S7.154.572,7.154.569a.518.518,0,0,0-1.03-.1s-.031.307-.089.866c-.411,3.91-2.193,20.176-4.294,29.363A62.062,62.062,0,0,0,.206,41.387C.015,44.717.045,48.079,0,52.321a.518.518,0,1,0,1.035.011" transform="translate(438.928 203.382)" fill="#57a6ff"/>
  <path id="Fill_416" data-name="Fill 416" d="M.139.871.151.883A20.54,20.54,0,0,1,2.985,5.207,24.273,24.273,0,0,1,5.6,16.133a24.788,24.788,0,0,1-.225,3.32A141.267,141.267,0,0,0,3.8,36.285v.031a.518.518,0,1,0,1.034-.043l-.283.012h.283v-.012l-.283.012h.283A140.457,140.457,0,0,1,6.4,19.592a25.871,25.871,0,0,0,.235-3.459A25.327,25.327,0,0,0,3.776,4.48,20.853,20.853,0,0,0,.9.165.518.518,0,0,0,.139.871" transform="translate(367.618 225.99)" fill="#57a6ff"/>
  <path id="Fill_417" data-name="Fill 417" d="M0,.58s.03.247.083.7C.453,4.455,1.922,17.725,1.922,26.2A38.7,38.7,0,0,1,1.7,30.765a.518.518,0,0,0,1.027.13A39.466,39.466,0,0,0,2.957,26.2C2.956,16.4,1.032.466,1.032.456A.518.518,0,1,0,0,.58H0" transform="translate(370.529 295.781)" fill="#57a6ff"/>
  <path id="Fill_418" data-name="Fill 418" d="M.708.429A57.822,57.822,0,0,0,0,9.281a32.63,32.63,0,0,0,.817,7.748,11.058,11.058,0,0,0,3.419,6.088c3.24,2.593,6.033,3.788,8.269,5.4a12.45,12.45,0,0,1,3,2.947,17.327,17.327,0,0,1,2.353,5.022,66.094,66.094,0,0,0,3.376,9.3,41.405,41.405,0,0,0,4.2,6.52,33.479,33.479,0,0,0,8.769,8.27.518.518,0,0,0,.531-.889l-.047-.028a32.735,32.735,0,0,1-8.418-7.965,40.438,40.438,0,0,1-4.108-6.363,65.335,65.335,0,0,1-3.317-9.155,18.354,18.354,0,0,0-2.5-5.316A15.769,15.769,0,0,0,11.26,26.47a52.1,52.1,0,0,1-6.378-4.161,10.065,10.065,0,0,1-3.062-5.532,31.632,31.632,0,0,1-.785-7.5,57.091,57.091,0,0,1,.347-6.1c.087-.793.174-1.439.238-1.886.032-.223.06-.4.078-.514s.029-.176.029-.176A.518.518,0,1,0,.708.429" transform="translate(306.05 146.926)" fill="#57a6ff"/>
  <path id="Fill_419" data-name="Fill 419" d="M28.477.764A18.2,18.2,0,0,1,30.823,9.25a13.285,13.285,0,0,1-1.212,5.577,17.244,17.244,0,0,1-4.4,5.712,21.25,21.25,0,0,1-10.323,5.03A12.859,12.859,0,0,0,11,27a7.248,7.248,0,0,0-2.833,3.649,36.256,36.256,0,0,1-4.562,8.173A24.726,24.726,0,0,1,1.56,41.241a7.445,7.445,0,0,1-1.3,1.125.518.518,0,0,0,.52.9,8.242,8.242,0,0,0,1.522-1.3,34.7,34.7,0,0,0,6.829-10.93,6.208,6.208,0,0,1,2.428-3.16,9.28,9.28,0,0,1,2.561-1.037c2.94-.808,7.018-1.3,11.781-5.523a18.272,18.272,0,0,0,4.653-6.058A14.311,14.311,0,0,0,31.858,9.25,19.225,19.225,0,0,0,29.388.272a.518.518,0,0,0-.911.491h0" transform="translate(380.626 172.043)" fill="#57a6ff"/>
</svg>
